<svg width="1407" height="891" viewBox="0 0 1407 891" fill="none" xmlns="http://www.w3.org/2000/svg">
<ellipse cx="1180" cy="267" rx="143" ry="123" fill="#F1F7FE"/>
<ellipse cx="238.631" cy="863.244" rx="239.5" ry="218" transform="rotate(-14.4523 238.631 863.244)" fill="#F1F7FE"/>
<g clip-path="url(#clip0_0_1)">
<path d="M1314.51 398.971C1313.53 438.854 1297.66 478.402 1273.48 511.858C1272.47 513.257 1271.44 514.645 1270.4 516.021C1268.07 519.118 1265.66 522.165 1263.18 525.16C1260.16 528.849 1257.03 532.465 1253.8 536.007C1251.17 538.921 1248.48 541.78 1245.71 544.586C1243.58 546.772 1241.42 548.921 1239.23 551.032C1212.89 576.556 1182.11 598.23 1150.2 617.522C1087.92 655.162 1018.89 685.152 945.573 693.797C872.26 702.431 794.133 687.897 737.011 644.568C660.025 586.176 632.596 481.956 656.114 391.206C671.755 330.831 708.216 274.706 760.394 236.132C812.121 197.893 879.274 177.715 944.512 183.527C994.059 150.722 1061.48 145.601 1118.97 163.517C1149.64 173.079 1177.63 188.489 1202.57 207.709C1214 216.531 1224.77 226.063 1234.83 236.241C1235.85 237.271 1236.87 238.311 1237.88 239.361C1242.1 243.725 1246.21 248.192 1250.19 252.762C1255.9 259.317 1261.36 266.043 1266.57 272.94C1268 274.84 1269.42 276.749 1270.81 278.679C1271.75 279.974 1272.7 281.278 1273.63 282.593C1273.65 282.62 1273.66 282.65 1273.67 282.682C1288.21 303.336 1300.45 325.595 1307.65 349.24C1308.92 353.424 1310.03 357.638 1310.96 361.9L1310.96 361.909C1311.77 365.524 1312.44 369.166 1312.97 372.836C1314.23 381.489 1314.75 390.229 1314.51 398.971Z" fill="#3F3D56"/>
<path opacity="0.3" d="M1126.6 471.867L973.019 367.942L1122.74 476.706C1123.05 477.12 1123.45 477.459 1123.93 477.696C1124.4 477.933 1124.93 478.06 1125.47 478.067C1126 478.074 1126.54 477.96 1127.02 477.736C1127.51 477.511 1127.93 477.182 1128.25 476.776C1128.58 476.37 1128.79 475.898 1128.88 475.4C1128.97 474.901 1128.94 474.391 1128.77 473.911C1128.61 473.431 1128.33 472.995 1127.95 472.64C1127.57 472.284 1127.11 472.019 1126.6 471.867Z" fill="#F0F0F0"/>
<path d="M788.13 436.58C836.43 433.314 873.107 394.008 870.05 348.785C866.993 303.563 825.359 269.55 777.059 272.815C728.759 276.08 692.083 315.387 695.14 360.61C698.197 405.832 739.83 439.845 788.13 436.58Z" fill="#F2F2F2"/>
<path d="M859.85 343.93C860.513 353.716 859.11 363.546 855.721 372.858C852.333 382.17 847.025 390.782 840.102 398.202C833.179 405.622 824.775 411.704 815.371 416.102C805.967 420.5 795.747 423.127 785.294 423.832C775.978 424.457 766.63 423.557 757.672 421.171C743.664 417.426 731.056 410.144 721.219 400.117C711.383 390.09 704.695 377.702 701.884 364.303C699.074 350.903 700.248 337.005 705.279 324.123C710.309 311.24 719.005 299.866 730.417 291.238C741.829 282.611 755.522 277.061 770.004 275.194C784.485 273.326 799.201 275.212 812.549 280.646C825.897 286.079 837.366 294.853 845.706 306.012C854.046 317.17 858.938 330.285 859.85 343.93Z" fill="white"/>
<path d="M766.375 348.4C779.942 347.483 790.245 336.442 789.386 323.739C788.527 311.036 776.833 301.482 763.265 302.399C749.698 303.316 739.395 314.357 740.254 327.06C741.113 339.763 752.808 349.317 766.375 348.4Z" fill="#E4E4E4"/>
<path d="M855.348 323.466C850.186 326.225 844.152 327.156 838.352 326.091C832.553 325.025 827.376 322.034 823.771 317.665C820.165 313.296 818.373 307.842 818.722 302.303C819.071 296.764 821.539 291.51 825.672 287.505C839.351 296.267 849.727 308.841 855.348 323.466Z" fill="#F2F2F2"/>
<path d="M809.027 380.638C813.911 380.307 817.62 376.333 817.311 371.76C817.002 367.187 812.792 363.747 807.907 364.077C803.023 364.407 799.314 368.382 799.623 372.955C799.932 377.528 804.142 380.968 809.027 380.638Z" fill="#E4E4E4"/>
<path d="M775.281 421.737C775.33 422.464 775.276 423.194 775.122 423.91C769.208 423.619 763.354 422.7 757.672 421.171C757.998 419.142 759.113 417.291 760.801 415.974C762.49 414.657 764.633 413.967 766.818 414.038C769.004 414.108 771.077 414.933 772.639 416.354C774.202 417.775 775.143 419.693 775.281 421.737Z" fill="#F2F2F2"/>
<path d="M718.101 349.815C718.385 354.016 716.953 358.175 714.095 361.45C711.238 364.725 707.168 366.872 702.71 367.455C699.944 356.655 699.777 345.395 702.218 334.484C706.391 334.849 710.277 336.59 713.185 339.397C716.093 342.205 717.835 345.896 718.101 349.815Z" fill="#F2F2F2"/>
<path d="M1152.49 294.021C1154.5 293.885 1156.03 292.25 1155.9 290.368C1155.77 288.487 1154.04 287.072 1152.03 287.208C1150.02 287.344 1148.5 288.979 1148.62 290.86C1148.75 292.742 1150.48 294.156 1152.49 294.021Z" fill="#30674E"/>
<path d="M1113.33 213.419C1114.5 213.34 1115.39 212.385 1115.32 211.285C1115.24 210.186 1114.23 209.36 1113.06 209.439C1111.88 209.518 1110.99 210.474 1111.07 211.573C1111.14 212.672 1112.15 213.499 1113.33 213.419Z" fill="#F0F0F0"/>
<path d="M798.723 626.561C799.897 626.481 800.788 625.526 800.714 624.427C800.64 623.328 799.628 622.501 798.454 622.581C797.28 622.66 796.389 623.615 796.463 624.714C796.537 625.813 797.549 626.64 798.723 626.561Z" fill="#F0F0F0"/>
<path d="M1138.56 407.323C1139.73 407.243 1140.62 406.288 1140.55 405.189C1140.47 404.09 1139.46 403.263 1138.29 403.343C1137.11 403.422 1136.22 404.377 1136.3 405.476C1136.37 406.576 1137.38 407.402 1138.56 407.323Z" fill="#F0F0F0"/>
<path d="M865.549 444.659C867.558 444.524 869.084 442.888 868.956 441.007C868.829 439.126 867.097 437.711 865.088 437.847C863.079 437.983 861.553 439.618 861.68 441.499C861.807 443.38 863.539 444.795 865.549 444.659Z" fill="#30674E"/>
<path d="M738.837 526.961C748.325 526.32 755.53 518.598 754.929 509.715C754.329 500.832 746.15 494.15 736.662 494.792C727.174 495.433 719.97 503.154 720.57 512.038C721.171 520.921 729.349 527.603 738.837 526.961Z" fill="#30674E"/>
<path d="M833.277 524.408C834.451 524.329 835.342 523.374 835.268 522.274C835.193 521.175 834.181 520.349 833.008 520.428C831.834 520.507 830.942 521.463 831.017 522.562C831.091 523.661 832.103 524.488 833.277 524.408Z" fill="#F0F0F0"/>
<path d="M1028.44 198.825C1029.61 198.746 1030.5 197.791 1030.43 196.691C1030.35 195.592 1029.34 194.766 1028.17 194.845C1026.99 194.924 1026.1 195.88 1026.18 196.979C1026.25 198.078 1027.26 198.905 1028.44 198.825Z" fill="#F0F0F0"/>
<path d="M930.347 631.526C931.521 631.447 932.412 630.491 932.338 629.392C932.264 628.293 931.252 627.467 930.078 627.546C928.904 627.625 928.013 628.581 928.087 629.68C928.161 630.779 929.173 631.605 930.347 631.526Z" fill="#F0F0F0"/>
<path d="M871.474 227.921C872.648 227.841 873.539 226.886 873.465 225.787C873.391 224.688 872.379 223.861 871.205 223.941C870.031 224.02 869.14 224.975 869.214 226.074C869.288 227.173 870.3 228 871.474 227.921Z" fill="#F0F0F0"/>
<path d="M933.033 320.804C934.206 320.724 935.098 319.769 935.024 318.67C934.949 317.571 933.937 316.744 932.763 316.823C931.59 316.903 930.698 317.858 930.772 318.957C930.847 320.056 931.859 320.883 933.033 320.804Z" fill="#F0F0F0"/>
<path d="M864.824 563.538C865.998 563.459 866.89 562.503 866.815 561.404C866.741 560.305 865.729 559.479 864.555 559.558C863.381 559.637 862.49 560.593 862.564 561.692C862.639 562.791 863.65 563.617 864.824 563.538Z" fill="#F0F0F0"/>
<path d="M1114.3 559.612C1115.48 559.533 1116.37 558.577 1116.29 557.478C1116.22 556.379 1115.21 555.553 1114.03 555.632C1112.86 555.711 1111.97 556.667 1112.04 557.766C1112.12 558.865 1113.13 559.691 1114.3 559.612Z" fill="#F0F0F0"/>
<path d="M996.41 451.129C997.584 451.05 998.476 450.094 998.401 448.995C998.327 447.896 997.315 447.069 996.141 447.149C994.968 447.228 994.076 448.183 994.15 449.283C994.225 450.382 995.237 451.208 996.41 451.129Z" fill="#F0F0F0"/>
<path d="M1043.34 313.019C1044.51 312.939 1045.41 311.984 1045.33 310.885C1045.26 309.786 1044.25 308.959 1043.07 309.038C1041.9 309.118 1041.01 310.073 1041.08 311.172C1041.15 312.271 1042.17 313.098 1043.34 313.019Z" fill="#F0F0F0"/>
<path d="M1149.66 372.548C1151.99 372.391 1153.76 370.496 1153.61 368.317C1153.46 366.138 1151.46 364.499 1149.13 364.656C1146.8 364.814 1145.03 366.708 1145.18 368.887C1145.33 371.066 1147.33 372.705 1149.66 372.548Z" fill="#FF6584"/>
<path d="M969.85 253.463C972.178 253.306 973.945 251.412 973.798 249.232C973.651 247.053 971.645 245.414 969.317 245.571C966.989 245.729 965.222 247.623 965.369 249.802C965.517 251.981 967.523 253.62 969.85 253.463Z" fill="#FF6584"/>
<path d="M988.198 524.871C990.526 524.713 992.293 522.819 992.146 520.64C991.999 518.46 989.992 516.821 987.665 516.979C985.337 517.136 983.57 519.03 983.717 521.21C983.865 523.389 985.871 525.028 988.198 524.871Z" fill="#FF6584"/>
<path d="M1252.04 525.914C1250.4 526.026 1248.84 526.636 1247.59 527.651C1246.34 528.665 1245.48 530.03 1245.13 531.538C1244.97 532.185 1244.91 532.849 1244.96 533.509L1245.71 544.586C1248.47 541.784 1251.17 538.924 1253.8 536.008C1257.02 532.462 1260.15 528.847 1263.18 525.16L1252.04 525.914Z" fill="#30674E"/>
<path d="M1282.69 581.662C1270 582.52 1256.06 583.011 1240.88 583.135C1162.33 583.773 1059.9 574.452 952.464 556.891C845.024 539.33 745.407 515.625 671.964 490.145C636.188 477.733 608.551 465.562 589.822 453.971C569.993 441.701 560.922 430.45 562.86 420.532C566.635 401.211 611.146 394.031 647.822 391.41L648.021 394.169C597.656 397.768 568.444 407.3 565.766 421.007C562.354 438.466 601.444 462.719 673.011 487.549C746.293 512.973 845.726 536.631 952.997 554.165C1060.27 571.698 1162.5 581.004 1240.88 580.368C1317.42 579.748 1363.27 569.379 1366.68 551.92C1369.52 537.425 1343.08 518.141 1292.25 497.618L1293.44 495.076C1330.37 509.988 1373.57 532.036 1369.59 552.395C1367.65 562.313 1354.88 569.993 1331.63 575.223C1318.38 578.204 1302 580.356 1282.69 581.662Z" fill="#30674E"/>
<path d="M1264.78 376.168C1319.32 372.481 1360.74 328.095 1357.28 277.03C1353.83 225.964 1306.82 187.556 1252.28 191.243C1197.74 194.93 1156.32 239.316 1159.77 290.382C1163.23 341.447 1210.24 379.855 1264.78 376.168Z" fill="white"/>
<path d="M1252.18 189.863C1232.36 191.203 1213.35 198.017 1197.57 209.443C1181.78 220.869 1169.93 236.393 1163.5 254.054C1157.07 271.714 1156.36 290.717 1161.46 308.659C1166.56 326.601 1177.24 342.677 1192.14 354.854C1207.05 367.03 1225.51 374.76 1245.2 377.067C1264.88 379.374 1284.91 376.153 1302.75 367.812C1320.58 359.471 1335.42 346.385 1345.39 330.208C1355.36 314.031 1360.01 295.49 1358.76 276.93C1357.97 264.591 1354.58 252.541 1348.79 241.475C1343 230.409 1334.92 220.545 1325.01 212.452C1315.11 204.359 1303.57 198.196 1291.07 194.319C1278.57 190.442 1265.36 188.928 1252.18 189.863ZM1264.69 374.788C1245.45 376.089 1226.28 372.018 1209.6 363.092C1192.93 354.165 1179.5 340.783 1171.01 324.637C1162.52 308.492 1159.36 290.308 1161.91 272.386C1164.47 254.464 1172.64 237.609 1185.39 223.951C1198.13 210.293 1214.88 200.446 1233.51 195.656C1252.14 190.866 1271.83 191.348 1290.07 197.04C1308.31 202.732 1324.29 213.379 1335.99 227.635C1347.7 241.891 1354.59 259.115 1355.81 277.129C1356.67 289.1 1354.99 301.133 1350.87 312.534C1346.74 323.935 1340.26 334.478 1331.79 343.557C1323.32 352.635 1313.03 360.069 1301.51 365.429C1289.99 370.789 1277.48 373.97 1264.69 374.788Z" fill="#2F2E41"/>
<path d="M1173.36 311.71C1172.91 311.74 1172.46 311.623 1172.09 311.379C1171.72 311.135 1171.46 310.779 1171.34 310.37C1167.6 297.089 1167.17 283.156 1170.08 269.64C1172.99 256.123 1179.16 243.384 1188.12 232.4C1188.44 232.014 1188.92 231.762 1189.43 231.7C1189.95 231.637 1190.47 231.77 1190.88 232.067C1191.29 232.365 1191.56 232.804 1191.62 233.288C1191.69 233.772 1191.54 234.262 1191.22 234.65C1182.64 245.176 1176.72 257.384 1173.93 270.337C1171.15 283.289 1171.56 296.642 1175.14 309.369C1175.22 309.632 1175.23 309.909 1175.18 310.179C1175.12 310.449 1175.01 310.705 1174.84 310.93C1174.67 311.154 1174.45 311.34 1174.19 311.475C1173.94 311.61 1173.65 311.69 1173.36 311.71Z" fill="#2F2E41"/>
<path d="M1264.27 369.613C1298.94 367.269 1325.26 339.058 1323.07 306.601C1320.87 274.144 1290.99 249.732 1256.33 252.076C1221.66 254.419 1195.34 282.63 1197.53 315.087C1199.73 347.544 1229.61 371.956 1264.27 369.613Z" fill="#30674E"/>
<path d="M1241.85 334.38C1237.78 334.549 1232.7 334.76 1228.62 332.355C1227.4 331.607 1226.38 330.616 1225.62 329.453C1224.85 328.291 1224.37 326.983 1224.21 325.624C1224.07 324.658 1224.18 323.675 1224.51 322.75C1224.85 321.825 1225.41 320.983 1226.15 320.291C1228.08 318.541 1231.03 317.962 1234.29 318.628L1229.44 296.122L1231.85 295.644L1237.56 322.103L1235.47 321.365C1233.04 320.511 1229.76 320.214 1227.86 321.944C1227.39 322.394 1227.04 322.938 1226.83 323.533C1226.63 324.128 1226.57 324.759 1226.66 325.376C1226.79 326.388 1227.15 327.36 1227.72 328.226C1228.29 329.092 1229.05 329.832 1229.95 330.396C1233.12 332.267 1237.18 332.262 1241.76 332.072L1241.85 334.38Z" fill="#2F2E41"/>
<path d="M1217.51 298.897L1204.25 299.794L1204.41 302.098L1217.66 301.202L1217.51 298.897Z" fill="#2F2E41"/>
<path d="M1259.35 296.069L1246.1 296.965L1246.25 299.269L1259.51 298.373L1259.35 296.069Z" fill="#2F2E41"/>
<path d="M1267.89 383.962L1211 387.808C1208.88 387.953 1206.9 388.88 1205.49 390.386C1204.09 391.891 1203.37 393.852 1203.5 395.838L1211.49 513.905C1212.03 521.905 1214.91 529.594 1219.8 536.138C1224.69 542.682 1231.41 547.833 1239.23 551.032C1241.42 548.924 1243.59 546.775 1245.71 544.586C1248.47 541.784 1251.17 538.924 1253.8 536.008C1257.02 532.462 1260.15 528.847 1263.18 525.16C1265.67 522.164 1268.07 519.118 1270.4 516.022C1271.45 514.648 1272.47 513.26 1273.48 511.858C1297.66 478.402 1313.53 438.854 1314.51 398.971C1308.25 393.648 1300.89 389.574 1292.88 386.995C1284.87 384.416 1276.37 383.384 1267.89 383.962Z" fill="#2F2E41"/>
<path d="M1271.63 408.46C1270.19 407.31 1268.52 406.441 1266.72 405.901C1264.92 405.362 1263.02 405.163 1261.12 405.316C1257.83 405.562 1254.72 406.87 1252.33 409.016C1251.95 409.349 1251.59 409.704 1251.25 410.078L1207.7 457.939L1176.12 492.653C1175.64 493.172 1175.25 493.76 1174.98 494.394C1174.53 495.377 1174.35 496.441 1174.43 497.5C1174.5 498.371 1174.75 499.219 1175.17 499.994C1175.59 500.77 1176.17 501.459 1176.88 502.02L1178.29 503.145L1188.52 511.28L1188.53 511.27C1189.89 512.166 1191.54 512.587 1193.21 512.46C1194.14 512.388 1195.04 512.143 1195.88 511.741C1196.71 511.339 1197.45 510.787 1198.05 510.118L1199.51 508.522L1209.97 497.029L1210.32 496.645L1273.18 427.551C1275.68 424.805 1276.92 421.251 1276.63 417.67C1276.34 414.09 1274.54 410.777 1271.63 408.46Z" fill="#30674E"/>
<path d="M1262.68 283.14C1264.48 278.891 1262.06 274.645 1258.23 272.267C1253.42 269.269 1247.51 270.218 1242.39 272.137C1236.79 274.238 1231.4 277.701 1225.21 277.941C1223 278.053 1220.82 277.539 1218.94 276.466C1217.07 275.392 1215.58 273.81 1214.69 271.926C1210.84 264.202 1213.98 255.065 1219.34 248.648C1222.35 244.976 1226.19 241.961 1230.57 239.815C1234.95 237.669 1239.78 236.444 1244.7 236.225C1250.33 236.107 1255.89 237.294 1260.88 239.682C1265.88 242.07 1270.15 245.584 1273.33 249.912C1273.56 250.206 1273.89 250.408 1274.27 250.475C1274.66 250.542 1275.05 250.468 1275.38 250.27C1279.63 248.144 1284.28 246.824 1289.06 246.388C1293.84 245.951 1298.66 246.406 1303.24 247.727C1310.11 249.831 1316.12 253.85 1320.46 259.25C1324.81 264.65 1327.29 271.176 1327.57 277.96C1327.64 279.74 1330.59 279.54 1330.52 277.761C1330.06 268.281 1325.71 259.365 1318.37 252.877C1314.65 249.646 1310.27 247.153 1305.49 245.545C1300.71 243.937 1295.62 243.246 1290.53 243.514C1284.65 243.793 1278.91 245.324 1273.73 247.988L1275.78 248.346C1272.84 244.338 1269.03 240.963 1264.59 238.44C1260.15 235.917 1255.18 234.303 1250.02 233.703C1244.9 233.162 1239.71 233.659 1234.8 235.159C1229.89 236.66 1225.38 239.129 1221.56 242.4C1214.37 248.456 1209.21 257.449 1210.19 266.653C1210.62 270.636 1212.16 274.65 1215.32 277.426C1219.37 280.981 1225.08 281.257 1230.25 279.927C1237.11 278.159 1243.17 273.448 1250.43 273.09C1251.85 272.995 1253.27 273.183 1254.6 273.642C1255.93 274.101 1257.14 274.82 1258.15 275.752C1259.86 277.331 1260.99 279.692 1260.04 281.919C1259.35 283.571 1261.98 284.802 1262.68 283.14Z" fill="#2F2E41"/>
<path d="M814.674 646.966C779.693 649.331 747.096 650.406 717.83 650.106C679.575 649.714 649.097 646.986 627.245 642C604.108 636.72 591.502 629.012 589.776 619.091C586.414 599.763 625.895 579.01 659.607 565.004L660.785 567.533C614.488 586.766 590.306 604.91 592.692 618.623C595.73 636.088 641.362 646.554 717.888 647.339C796.246 648.142 898.681 639.056 1006.32 621.749C1113.96 604.446 1213.9 581.001 1287.72 555.733C1359.82 531.057 1399.43 506.887 1396.39 489.422C1393.87 474.921 1361.97 465.137 1306.58 461.871L1306.79 459.109C1347.04 461.482 1395.76 468.586 1399.3 488.953C1401.03 498.875 1391.72 510.106 1371.63 522.335C1352.65 533.885 1324.76 545.996 1288.72 558.331C1214.73 583.655 1114.61 607.145 1006.8 624.477C939.164 635.349 873.556 642.985 814.674 646.966Z" fill="#30674E"/>
<path d="M1395.38 499.214C1404.87 498.572 1412.07 490.851 1411.47 481.967C1410.87 473.084 1402.69 466.403 1393.2 467.044C1383.71 467.685 1376.51 475.407 1377.11 484.29C1377.71 493.174 1385.89 499.855 1395.38 499.214Z" fill="#30674E"/>
<path d="M871.243 149.242C880.731 148.601 887.936 140.879 887.335 131.996C886.735 123.113 878.556 116.431 869.068 117.073C859.58 117.714 852.376 125.435 852.976 134.319C853.577 143.202 861.755 149.884 871.243 149.242Z" fill="#E6E6E6"/>
<path d="M590.533 552.699C600.021 552.057 607.226 544.336 606.625 535.453C606.025 526.569 597.846 519.888 588.358 520.529C578.87 521.17 571.666 528.892 572.266 537.775C572.867 546.659 581.045 553.34 590.533 552.699Z" fill="#E6E6E6"/>
<path d="M676.023 240.278C681.831 239.885 686.241 235.158 685.874 229.72C685.506 224.282 680.5 220.192 674.691 220.585C668.883 220.977 664.473 225.704 664.841 231.142C665.208 236.58 670.215 240.67 676.023 240.278Z" fill="#FF6584"/>
<path d="M652.142 617.129C657.95 616.737 662.361 612.01 661.993 606.572C661.626 601.134 656.619 597.044 650.811 597.437C645.003 597.829 640.592 602.556 640.96 607.994C641.328 613.432 646.334 617.522 652.142 617.129Z" fill="#FF6584"/>
<path d="M1358.59 407.632C1364.39 407.239 1368.8 402.513 1368.44 397.075C1368.07 391.637 1363.06 387.547 1357.25 387.939C1351.45 388.332 1347.04 393.059 1347.4 398.497C1347.77 403.935 1352.78 408.025 1358.59 407.632Z" fill="#FF6584"/>
<path d="M1215.93 662.919C1225.42 662.277 1232.62 654.556 1232.02 645.672C1231.42 636.789 1223.24 630.107 1213.75 630.749C1204.27 631.39 1197.06 639.112 1197.66 647.995C1198.26 656.878 1206.44 663.56 1215.93 662.919Z" fill="#E6E6E6"/>
</g>
<circle cx="1301" cy="50" r="50" fill="#F1F7FE"/>
<defs>
<clipPath id="clip0_0_1">
<rect width="843" height="581" fill="white" transform="translate(543.366 139.091) rotate(-3.86744)"/>
</clipPath>
</defs>
</svg>
