<svg width="1512" height="930" viewBox="0 0 1512 930" fill="none" xmlns="http://www.w3.org/2000/svg">
<g clip-path="url(#clip0_0_1)">
<mask id="mask0_0_1" style="mask-type:alpha" maskUnits="userSpaceOnUse" x="1" y="67" width="1512" height="982">
<rect x="1" y="67" width="1512" height="982" fill="#FEF9ED"/>
</mask>
<g mask="url(#mask0_0_1)">
<path d="M1.07436 433.506L0.5 433.419V434V1049V1049.5H1H1513H1513.5V1049V434V433.536L1513.04 433.501L954.037 391.501L953.966 391.496L953.895 391.511L446.484 500.492L1.07436 433.506Z" fill="url(#paint0_linear_0_1)" stroke="#6C4F03"/>
<circle cx="542" cy="653" r="50" fill="#E4EFFB"/>
<ellipse cx="1249" cy="813" rx="323" ry="283" fill="#E4EFFB"/>
<path d="M1513 766C1513 922.297 1368.39 1049 1190 1049C1011.61 1049 867 922.297 867 766C968.5 868 1098.5 930 1197 930C1268 930 1426 912.5 1513 766Z" fill="#F1F7FE"/>
<path d="M1.5 599.5C43.1667 570.5 160.4 518.6 296 543C465.5 573.5 1009 940 1427 783.5C1761.4 658.3 1542.67 493.667 1391.5 427" stroke="#F4F6F9" stroke-width="3"/>
<path d="M-629.612 453.573C-585.106 429.153 -463.032 389.972 -330.783 428.608C-165.47 476.902 369.278 892.066 801.512 780.755C1147.3 691.705 947.249 504.814 804 422.5" stroke="#F4F6F9" stroke-width="3"/>
</g>
<path d="M828.32 410.619C813.758 539.776 737.671 654.276 640.267 728.723C632.362 734.771 624.262 740.572 615.965 746.128C614.925 746.825 613.885 747.523 612.845 748.207C554.965 786.262 488.655 810.639 422.039 803.036C367.916 796.868 314.772 765.317 283.055 718.184C282.455 717.299 281.856 716.387 281.28 715.488C268.36 695.851 259.598 673.305 255.632 649.489C249.93 614.236 254.36 575.256 236.641 545.18C213.661 506.159 164.445 499.803 122.094 501.265C82.5083 502.619 42.984 507.312 3.44733 509.753C2.63971 509.806 1.81986 509.847 1 509.9V95.4252C1.00886 87.3589 3.93694 79.6258 9.14196 73.9221C14.347 68.2183 21.404 65.0097 28.765 65H200.971C209.305 66.1934 215.203 84.5102 223.511 85.1136C227.109 85.3818 230.702 85.5964 234.292 85.7573C253.173 86.6154 272.03 86.2534 290.862 85.1136C301.863 84.4566 315.311 66.0995 326.299 65H644.281C646.655 65.8582 649.004 66.7566 651.354 67.6818C661.477 71.6794 671.366 76.3546 680.966 81.6809C786.887 140.533 842.882 281.463 828.32 410.619Z" fill="#3F3D56"/>
<path d="M695.295 238.165C645.994 288.449 580.687 320.711 513.606 328.448C507.022 329.213 500.423 329.736 493.807 330.017C492.338 330.084 490.87 330.125 489.389 330.165C486.991 330.232 484.58 330.259 482.182 330.259C479.306 330.259 476.431 330.214 473.555 330.125C456.909 329.592 440.329 327.606 423.972 324.184C423.372 324.05 422.785 323.93 422.186 323.795C419.604 323.246 417.03 322.656 414.464 322.025C409.545 320.832 404.65 319.509 399.78 318.056C398.202 317.587 396.623 317.104 395.045 316.595C392.781 315.884 390.529 315.133 388.278 314.369C387.433 314.074 386.589 313.792 385.745 313.484C384.888 313.189 384.032 312.88 383.175 312.559C377.95 310.681 372.77 308.643 367.635 306.444C338.388 294.062 311.01 276.926 286.42 255.61C283.018 252.647 279.567 249.536 276.239 246.519C258.349 230.348 239.847 213.626 217.295 209.979C192.944 206.05 169.548 218.199 146.934 229.945C139.262 233.928 131.333 238.044 123.489 241.49C85.1993 258.018 43.0011 260.229 3.44733 247.779C2.62747 247.538 1.80762 247.27 1 247.002V244.199C1.80762 244.467 2.62747 244.735 3.44733 244.99C42.6696 257.502 84.5724 255.394 122.583 238.996C130.354 235.59 138.259 231.487 145.894 227.518C168.838 215.598 192.565 203.275 217.65 207.324C240.875 211.079 259.646 228.041 277.793 244.454C281.121 247.458 284.56 250.568 287.937 253.518C312.364 274.697 339.566 291.717 368.626 304.004H368.638C373.557 306.095 378.537 308.067 383.542 309.89C384.264 310.145 384.986 310.4 385.708 310.668C386.516 310.95 387.336 311.231 388.143 311.513C390.211 312.237 392.283 312.925 394.359 313.578C396.391 314.248 398.434 314.883 400.49 315.482H400.502C405.764 317.051 411.058 318.468 416.385 319.733C418.796 320.323 421.207 320.859 423.642 321.368C424.168 321.489 424.706 321.596 425.245 321.704C440.937 324.949 456.835 326.859 472.796 327.416H472.809C478.352 327.604 483.887 327.626 489.414 327.483C490.858 327.443 492.289 327.389 493.721 327.335C499.974 327.067 506.219 326.585 512.455 325.887H512.468C579.341 318.392 644.489 286.317 693.631 236.194C693.87 235.954 694.186 235.827 694.51 235.842C694.834 235.856 695.139 236.011 695.359 236.271C695.579 236.532 695.696 236.878 695.684 237.233C695.672 237.587 695.532 237.923 695.295 238.165Z" fill="#30674E"/>
<path d="M1.37933 186.942C1.30401 187.285 1.17572 187.612 1 187.908V184.167C1.44683 185.004 1.58264 185.998 1.37933 186.942Z" fill="#FF6584"/>
<path d="M11.0351 201.145C11.2806 198.737 10.2405 196.634 8.7119 196.446C7.18333 196.259 5.74514 198.059 5.49962 200.467C5.25409 202.875 6.29421 204.979 7.82278 205.166C9.35135 205.353 10.7895 203.553 11.0351 201.145Z" fill="#E6E6E6"/>
<path d="M14.4403 229.583C14.6859 227.175 13.6457 225.071 12.1172 224.884C10.5886 224.697 9.15041 226.497 8.90489 228.905C8.65936 231.313 9.69948 233.417 11.2281 233.604C12.7566 233.791 14.1948 231.991 14.4403 229.583Z" fill="#3F3D56"/>
<path d="M618.903 456.366C619.5 453.78 617.236 450.921 613.845 449.98C610.454 449.038 607.22 450.37 606.622 452.955C606.024 455.54 608.289 458.399 611.68 459.341C615.071 460.283 618.305 458.951 618.903 456.366Z" fill="white"/>
<path d="M577.489 456.073C578.087 453.488 575.823 450.629 572.431 449.687C569.04 448.745 565.806 450.078 565.209 452.663C564.611 455.248 566.875 458.107 570.266 459.049C573.658 459.99 576.891 458.658 577.489 456.073Z" fill="#3F3D56"/>
<path d="M626.674 494.016C627.272 491.431 625.007 488.572 621.616 487.63C618.225 486.688 614.991 488.021 614.393 490.606C613.796 493.191 616.06 496.05 619.451 496.992C622.842 497.934 626.076 496.601 626.674 494.016Z" fill="#FF6584"/>
<path d="M636.328 508.213C636.573 505.806 635.533 503.702 634.005 503.515C632.476 503.328 631.038 505.128 630.792 507.536C630.547 509.943 631.587 512.047 633.116 512.234C634.644 512.421 636.082 510.621 636.328 508.213Z" fill="#E6E6E6"/>
<path d="M639.733 536.651C639.979 534.243 638.939 532.14 637.41 531.952C635.881 531.765 634.443 533.565 634.198 535.973C633.952 538.381 634.992 540.485 636.521 540.672C638.049 540.859 639.488 539.059 639.733 536.651Z" fill="#3F3D56"/>
<path d="M597.394 482.457C597.64 480.049 596.599 477.945 595.071 477.758C593.542 477.571 592.104 479.371 591.859 481.779C591.613 484.187 592.653 486.291 594.182 486.478C595.71 486.665 597.149 484.865 597.394 482.457Z" fill="#E6E6E6"/>
<path d="M618.235 473.877C618.481 471.469 617.441 469.366 615.912 469.179C614.383 468.991 612.945 470.792 612.7 473.199C612.454 475.607 613.494 477.711 615.023 477.898C616.551 478.085 617.99 476.285 618.235 473.877Z" fill="#FF6584"/>
<path d="M592.56 450.698C592.805 448.29 591.765 446.186 590.237 445.999C588.708 445.812 587.27 447.612 587.024 450.02C586.779 452.428 587.819 454.531 589.348 454.719C590.876 454.906 592.314 453.105 592.56 450.698Z" fill="#3F3D56"/>
<path d="M62.1349 138.57C62.7327 135.985 60.4683 133.126 57.0771 132.184C53.6859 131.242 50.4521 132.575 49.8542 135.16C49.2564 137.745 51.5208 140.604 54.9121 141.546C58.3033 142.488 61.537 141.155 62.1349 138.57Z" fill="white"/>
<path d="M20.7217 138.278C21.3195 135.692 19.0551 132.833 15.6639 131.892C12.2727 130.95 9.03888 132.282 8.44103 134.867C7.84318 137.452 10.1076 140.311 13.4988 141.253C16.8901 142.195 20.1238 140.863 20.7217 138.278Z" fill="#3F3D56"/>
<path d="M69.9064 176.221C70.5042 173.636 68.2398 170.777 64.8486 169.835C61.4573 168.893 58.2236 170.225 57.6257 172.81C57.0279 175.396 59.2923 178.255 62.6835 179.196C66.0747 180.138 69.3085 178.806 69.9064 176.221Z" fill="#FF6584"/>
<path d="M79.5602 190.418C79.8057 188.01 78.7656 185.906 77.2371 185.719C75.7085 185.532 74.2703 187.332 74.0248 189.74C73.7792 192.148 74.8194 194.252 76.3479 194.439C77.8765 194.626 79.3147 192.826 79.5602 190.418Z" fill="#E6E6E6"/>
<path d="M82.9656 218.856C83.2111 216.448 82.171 214.344 80.6424 214.157C79.1138 213.97 77.6757 215.77 77.4302 218.178C77.1846 220.586 78.2247 222.689 79.7533 222.877C81.2819 223.064 82.7201 221.264 82.9656 218.856Z" fill="#3F3D56"/>
<path d="M40.6265 164.662C40.872 162.254 39.8319 160.15 38.3033 159.963C36.7748 159.776 35.3366 161.576 35.091 163.984C34.8455 166.392 35.8856 168.495 37.4142 168.683C38.9428 168.87 40.381 167.069 40.6265 164.662Z" fill="#E6E6E6"/>
<path d="M61.4676 156.082C61.7131 153.674 60.673 151.57 59.1444 151.383C57.6158 151.196 56.1776 152.996 55.9321 155.404C55.6866 157.812 56.7267 159.916 58.2553 160.103C59.7838 160.29 61.222 158.49 61.4676 156.082Z" fill="#FF6584"/>
<path d="M35.7923 132.902C36.0378 130.494 34.9977 128.391 33.4691 128.204C31.9405 128.016 30.5023 129.817 30.2568 132.224C30.0113 134.632 31.0514 136.736 32.58 136.923C34.1086 137.11 35.5467 135.31 35.7923 132.902Z" fill="#3F3D56"/>
<path d="M194.795 330.628C197.499 330.628 199.69 328.226 199.69 325.264C199.69 322.302 197.499 319.901 194.795 319.901C192.092 319.901 189.901 322.302 189.901 325.264C189.901 328.226 192.092 330.628 194.795 330.628Z" fill="white"/>
<path d="M74.876 381.582C76.2277 381.582 77.3234 380.382 77.3234 378.901C77.3234 377.419 76.2277 376.219 74.876 376.219C73.5244 376.219 72.4287 377.419 72.4287 378.901C72.4287 380.382 73.5244 381.582 74.876 381.582Z" fill="white"/>
<path d="M560.671 581.378C562.023 581.378 563.119 580.177 563.119 578.696C563.119 577.215 562.023 576.014 560.671 576.014C559.32 576.014 558.224 577.215 558.224 578.696C558.224 580.177 559.32 581.378 560.671 581.378Z" fill="white"/>
<path d="M244.966 458.014C246.317 458.014 247.413 456.813 247.413 455.332C247.413 453.851 246.317 452.651 244.966 452.651C243.614 452.651 242.518 453.851 242.518 455.332C242.518 456.813 243.614 458.014 244.966 458.014Z" fill="white"/>
<path d="M289.018 177.764C290.369 177.764 291.465 176.563 291.465 175.082C291.465 173.601 290.369 172.401 289.018 172.401C287.666 172.401 286.57 173.601 286.57 175.082C286.57 176.563 287.666 177.764 289.018 177.764Z" fill="white"/>
<path d="M689.156 281.014C690.508 281.014 691.603 279.813 691.603 278.332C691.603 276.851 690.508 275.651 689.156 275.651C687.804 275.651 686.709 276.851 686.709 278.332C686.709 279.813 687.804 281.014 689.156 281.014Z" fill="white"/>
<path d="M120.152 141.56C121.503 141.56 122.599 140.359 122.599 138.878C122.599 137.397 121.503 136.196 120.152 136.196C118.8 136.196 117.704 137.397 117.704 138.878C117.704 140.359 118.8 141.56 120.152 141.56Z" fill="white"/>
<path d="M565.566 128.15C568.269 128.15 570.46 125.749 570.46 122.787C570.46 119.825 568.269 117.423 565.566 117.423C562.863 117.423 560.671 119.825 560.671 122.787C560.671 125.749 562.863 128.15 565.566 128.15Z" fill="white"/>
<path d="M784.599 835.486H782.151C782.151 820.012 768.923 804.873 742.823 790.485C717.285 776.406 680.673 763.748 634.027 752.873C627.125 751.264 620.065 749.708 612.845 748.206C575.499 740.429 534.004 734.06 489.561 729.219C480.371 728.213 471.051 727.279 461.6 726.417C458.541 726.122 455.457 725.854 452.361 725.572C443.759 724.834 435.067 724.146 426.285 723.507C380.446 720.182 332.32 718.371 283.055 718.184C280.155 718.157 277.242 718.157 274.33 718.157C210.173 718.157 195.685 724.794 194.829 730.372C192.638 744.479 266.841 772.812 338.597 800.234C418.025 830.565 499.656 861.755 527.457 888.318C528.4 889.216 529.281 890.115 530.101 891H526.736C525.842 890.115 524.876 889.216 523.848 888.318C494.492 862.626 412.152 831.169 337.789 802.755C246.088 767.73 190.007 745.471 192.406 729.916C193.446 723.185 203.7 715.475 274.33 715.475C276.643 715.475 278.968 715.475 281.281 715.488C330.533 715.636 378.66 717.406 424.547 720.704C433.517 721.335 442.396 722.032 451.186 722.796C454.454 723.078 457.709 723.359 460.951 723.668C470.643 724.553 480.208 725.509 489.646 726.537C535.265 731.499 577.811 738.069 615.965 746.128C622.279 747.469 628.471 748.846 634.54 750.258C731.308 772.812 784.599 803.076 784.599 835.486Z" fill="#E6E6E6"/>
<path d="M746.668 829.022H744.221C744.221 817.57 701.529 805.31 637.977 805.31C574.424 805.31 531.733 817.57 531.733 829.022H529.285C529.285 812.5 584.549 802.628 637.977 802.628C691.404 802.628 746.668 812.5 746.668 829.022Z" fill="#E6E6E6"/>
<path d="M703.966 836.821H701.519C701.519 830.354 675.569 823.146 638.333 823.146C601.096 823.146 575.147 830.354 575.147 836.821H572.699C572.699 826.197 606.515 820.464 638.333 820.464C670.15 820.464 703.966 826.197 703.966 836.821Z" fill="#E6E6E6"/>
<path d="M441.976 244.81C469.008 244.81 490.922 220.796 490.922 191.173C490.922 161.551 469.008 137.537 441.976 137.537C414.943 137.537 393.029 161.551 393.029 191.173C393.029 220.796 414.943 244.81 441.976 244.81Z" fill="#F2F2F2"/>
<path d="M434.634 248.832C461.666 248.832 483.58 224.819 483.58 195.196C483.58 165.574 461.666 141.56 434.634 141.56C407.601 141.56 385.687 165.574 385.687 195.196C385.687 224.819 407.601 248.832 434.634 248.832Z" fill="#F2F2F2"/>
<path d="M488.474 782.441L442.596 782.439V781.803C442.597 776.614 444.478 771.637 447.827 767.967C451.176 764.298 455.717 762.236 460.453 762.236L468.835 755.269L484.47 762.237L488.475 762.237L488.474 782.441Z" fill="#F2F2F2"/>
<path d="M467.117 755.288L427.92 781.412L427.619 780.869C425.158 776.435 424.405 771.112 425.526 766.069C426.647 761.027 429.549 756.679 433.595 753.982L437.452 743.257L454.115 740.306L457.536 738.026L467.117 755.288Z" fill="#F2F2F2"/>
<path d="M494.067 612.849C493.859 614.458 493.553 619.929 493.198 627.894C491.473 666.512 488.475 763.742 488.475 763.742L469.79 757.372C469.79 757.372 447.568 683.917 451.239 643.69L448.596 629.691L444.068 605.769V605.756L430.277 532.904C430.277 532.904 427.255 552.642 427.01 557.268C426.766 561.894 424.318 563.235 423.095 563.235C416.964 563.235 418.848 562.042 419.742 568.68C420.39 573.453 415.079 600.821 412.045 615.786C410.87 621.605 410.038 625.547 410.038 625.547L415.226 637.803L458.238 739.444L441.976 748.992L377.097 643.623L370.697 633.231L369.327 621.578L358.534 529.9C358.534 529.9 355.169 519.535 358.534 519.267C361.911 518.985 363.82 520.152 362.866 516.223C361.911 512.281 381.49 446.576 381.49 446.576L483.054 470.713C483.054 470.713 493.064 492.516 489.172 502.895C485.269 513.273 492.366 593.647 488.316 597.214C484.278 600.781 481.671 597.925 487.251 604.053C488.105 605.029 489.112 605.828 490.225 606.413C493.675 608.129 495.046 605.34 494.067 612.849Z" fill="#F2F2F2"/>
<path d="M434.315 228.612C449.897 228.612 462.528 214.77 462.528 197.696C462.528 180.622 449.897 166.781 434.315 166.781C418.734 166.781 406.103 180.622 406.103 197.696C406.103 214.77 418.734 228.612 434.315 228.612Z" fill="#A0616A"/>
<path d="M456.301 224.322L445.116 226.668C445.116 226.668 455.518 208.271 454.906 199.85C454.294 191.429 445.924 188.412 445.924 188.412C445.924 188.412 441.286 189.512 436.404 190.129C435.819 188.324 435.06 186.594 434.14 184.966C433.959 187.067 433.11 189.032 431.742 190.517C429.953 190.686 428.151 190.458 426.443 189.847C424.51 188.882 424.547 187.205 425.183 185.637C418.881 186.206 412.732 188.057 407.048 191.094C406.767 186.977 406.911 182.839 407.477 178.758C407.746 178.677 408.015 178.583 408.284 178.489C409.952 177.911 411.56 177.143 413.081 176.197C411.388 175.95 409.806 175.135 408.553 173.863C409.581 170.565 411.221 167.709 413.803 166.314C416.294 164.979 419.018 164.246 421.79 164.165C424.562 164.084 427.317 164.657 429.87 165.845C429.87 165.845 423.886 161.058 426.089 159.1C426.235 159.261 426.382 159.408 426.541 159.556C426.749 159.743 426.982 159.945 427.202 160.132C428.56 161.339 430.592 159.636 430.861 157.813C430.89 157.582 430.931 157.354 430.983 157.129C431.02 156.941 431.069 156.753 431.118 156.579C431.159 156.424 431.208 156.272 431.265 156.123C435.339 155.05 447.662 159.408 452.397 169.009C452.397 169.009 485.497 186.441 456.301 224.322Z" fill="#3F3D56"/>
<path d="M446.081 499.959C445.673 496.871 446.381 493.73 448.054 491.205C449.727 488.68 452.233 486.969 455.039 486.438C455.611 486.34 456.19 486.294 456.768 486.3L486.267 411.234L506.504 427.883L467.103 498.996C466.893 501.625 465.895 504.103 464.264 506.044C462.634 507.985 460.463 509.28 458.09 509.727C456.737 509.967 455.355 509.913 454.022 509.568C452.688 509.222 451.43 508.592 450.319 507.714C449.208 506.836 448.265 505.727 447.545 504.449C446.825 503.172 446.342 501.752 446.123 500.27C446.108 500.166 446.094 500.063 446.081 499.959Z" fill="#30674E"/>
<path d="M363.446 506.078C365.431 503.841 366.541 500.843 366.539 497.722C366.538 494.602 365.426 491.605 363.439 489.369C363.029 488.922 362.585 488.512 362.113 488.145L378.455 408.401L353.153 408.857L346.944 491.773C345.706 494.036 345.187 496.684 345.466 499.304C345.746 501.925 346.81 504.37 348.491 506.259C349.457 507.323 350.605 508.169 351.87 508.747C353.134 509.325 354.49 509.625 355.86 509.629C357.23 509.633 358.587 509.341 359.855 508.771C361.122 508.2 362.274 507.361 363.245 506.302C363.313 506.229 363.38 506.154 363.446 506.078Z" fill="#30674E"/>
<path d="M526.494 372.585C522.823 377.948 517.929 371.901 522.823 379.625C526.188 384.935 506.903 434.709 494.557 465.201C488.977 478.999 484.804 488.855 484.804 488.855L463.989 475.647L461.554 474.105C461.554 474.105 480.644 421.461 486.786 402.541C487.802 399.403 488.475 397.19 488.634 396.305C489.784 390.017 489.931 384.626 488.634 382.628C488.327 381.884 488.066 381.118 487.851 380.335C485.391 372.437 477.903 345.767 470.891 320.544C468.847 313.142 466.828 305.875 464.993 299.237C460.282 282.194 456.745 269.335 456.745 269.335L484.89 270.676C484.89 270.676 485.355 271.534 486.174 273.089C488.132 276.79 492.146 284.42 496.796 293.592C500.149 300.189 503.844 307.604 507.332 314.899C516.216 333.457 523.863 351.331 521.6 353.812C516.705 359.176 511.7 356.132 517.868 363.011C524.047 369.903 530.165 367.221 526.494 372.585Z" fill="#F2F2F2"/>
<path d="M492.839 443.896C485.497 435.931 486.856 399.632 486.856 399.632C486.856 399.632 494.161 277.744 484.274 269.577C477.437 264.17 470.163 259.462 462.542 255.511C462.101 255.297 461.869 255.176 461.869 255.176L455.554 235.666L416.654 233.453L409.863 247.908C409.863 247.908 408.798 247.989 407.134 248.244C400.918 249.182 386.307 252.508 387.604 262.873C389.244 276.014 377.668 356.723 374.144 360.759C370.62 364.795 371.55 379.545 380.262 388.918C388.975 398.291 382.71 423.782 376.591 434.509C372.919 441.075 371.224 448.74 371.746 456.42C371.746 456.42 376.591 485.464 388.828 476.078C393.49 472.497 400.11 472.041 408.076 472.698C408.154 472.705 408.238 472.716 408.316 472.722L408.076 474.039C419.138 474.938 432.806 477.982 447.429 477.807L446.996 476.46C447.142 476.459 447.284 476.468 447.429 476.466C449.901 476.439 452.385 476.319 454.906 476.078C476.712 473.999 486.342 480.569 489.168 473.396C491.995 466.222 500.181 451.861 492.839 443.896Z" fill="#F2F2F2"/>
<path opacity="0.3" d="M434.634 235.423C454.908 235.423 471.344 217.413 471.344 195.196C471.344 172.979 454.908 154.969 434.634 154.969C414.359 154.969 397.924 172.979 397.924 195.196C397.924 217.413 414.359 235.423 434.634 235.423Z" fill="#30674E"/>
<path d="M416.976 255.926C416.976 255.926 411.396 276.227 404.899 299.653C402.855 307.028 400.714 314.711 398.634 322.18C391.842 346.464 385.65 368.348 385.075 369.219C383.778 371.217 383.937 376.608 385.075 382.897C385.308 384.157 384.782 389.065 383.79 396.104C382.493 405.343 380.401 418.243 378.174 431.411C376.399 441.937 374.54 452.624 372.937 461.729C370.428 475.862 368.556 486.173 368.556 486.173H345.306C345.306 486.173 349.675 379.29 354.569 371.579C359.464 363.856 354.569 369.903 350.898 364.54C347.227 359.176 353.346 361.858 359.513 354.965C365.68 348.087 360.688 351.13 355.793 345.767C353.982 343.782 358.032 331.137 363.857 315.999C366.573 308.972 369.669 301.396 372.729 294.102C379.055 279.043 385.259 265.192 387.718 259.721C387.718 259.707 387.731 259.694 387.731 259.681L388.832 257.267L416.976 255.926Z" fill="#F2F2F2"/>
<path d="M467.673 260.901C442.124 271.775 419.153 273.65 400.371 260.901V236.764C422.491 251.308 444.934 250.911 467.673 236.764V260.901Z" fill="#3F3D56"/>
<path d="M487.251 415.105C447.767 425.98 412.266 427.854 383.24 415.105V390.969C417.425 405.513 452.109 405.115 487.251 390.969V415.105Z" fill="#3F3D56"/>
<path d="M494.067 612.849C493.859 614.458 493.553 619.929 493.198 627.894C478.456 630.512 463.474 631.115 448.596 629.691L444.068 605.769C459.312 608.819 474.915 609.037 490.225 606.413C493.675 608.129 495.046 605.34 494.067 612.849Z" fill="#3F3D56"/>
<path d="M415.226 637.803C402.68 640.863 389.929 642.809 377.097 643.623L370.697 633.231L369.327 621.578C383.75 621.985 398.148 620.033 412.045 615.785C410.87 621.605 410.038 625.547 410.038 625.547L415.226 637.803Z" fill="#3F3D56"/>
<path d="M418.726 311.855C418.726 315.411 417.437 318.822 415.142 321.337C412.847 323.851 409.735 325.264 406.489 325.264C403.244 325.264 400.132 323.851 397.837 321.337C395.542 318.822 394.253 315.411 394.253 311.855C394.253 304.449 405.266 289.06 406.489 298.446C407.713 307.832 418.726 304.449 418.726 311.855Z" fill="#30674E"/>
<path d="M407.82 289.12C407.379 289.079 406.939 289.066 406.486 289.066C401.159 289.073 396.037 291.316 392.172 295.334C388.308 299.352 385.995 304.839 385.708 310.668C385.696 311.057 385.684 311.459 385.684 311.861C385.684 312.411 385.696 312.947 385.745 313.484C386.053 318.257 387.724 322.803 390.523 326.476C393.321 330.15 397.104 332.764 401.335 333.948C405.566 335.132 410.03 334.827 414.093 333.074C418.157 331.321 421.613 328.211 423.972 324.184C424.446 323.389 424.871 322.561 425.245 321.704C426.716 318.341 427.411 314.635 427.27 310.91C427.129 307.184 426.156 303.554 424.435 300.337C422.715 297.12 420.3 294.414 417.403 292.459C414.506 290.503 411.216 289.356 407.82 289.12ZM422.186 323.795C420.266 326.325 417.868 328.366 415.157 329.779C412.446 331.191 409.487 331.94 406.486 331.975C402.016 331.968 397.702 330.176 394.351 326.936C391 323.695 388.841 319.228 388.278 314.369C388.179 313.537 388.13 312.7 388.131 311.861C388.129 311.745 388.133 311.629 388.143 311.513C388.227 306.241 390.196 301.217 393.627 297.521C397.057 293.824 401.675 291.751 406.486 291.748C406.596 292.07 406.706 292.378 406.829 292.673C412.054 306.216 423.385 305.197 424.841 311.861C425.545 315.083 425.117 318.477 423.642 321.368C423.227 322.226 422.739 323.038 422.186 323.795Z" fill="#30674E"/>
</g>
<g filter="url(#filter0_d_0_1)">
<path d="M759.44 263V195.8H761.36V261.08H798.8V263H759.44ZM829.885 263.96C825.405 263.96 821.533 263.032 818.269 261.176C815.069 259.256 812.605 256.504 810.877 252.92C809.213 249.272 808.381 244.952 808.381 239.96V215H810.301V239.96C810.301 246.808 812.029 252.216 815.485 256.184C819.005 260.088 823.805 262.04 829.885 262.04C833.533 262.04 836.861 261.08 839.869 259.16C842.941 257.24 845.341 254.584 847.069 251.192C848.797 247.8 849.661 244.056 849.661 239.96V215H851.581V263H849.661V249.464C848.061 253.88 845.501 257.4 841.981 260.024C838.461 262.648 834.429 263.96 829.885 263.96ZM872.716 263V215H874.636V228.536C876.236 224.12 878.796 220.6 882.316 217.976C885.836 215.352 889.868 214.04 894.412 214.04C898.892 214.04 902.732 215 905.932 216.92C909.196 218.776 911.66 221.528 913.324 225.176C915.052 228.76 915.916 233.048 915.916 238.04V263H913.996V238.04C913.996 231.192 912.236 225.816 908.716 221.912C905.26 217.944 900.492 215.96 894.412 215.96C890.764 215.96 887.404 216.92 884.332 218.84C881.324 220.76 878.956 223.416 877.228 226.808C875.5 230.2 874.636 233.944 874.636 238.04V263H872.716ZM946.651 264.152C941.659 264.152 937.851 263.032 935.227 260.792C932.603 258.552 931.291 255.544 931.291 251.768C931.291 248.12 932.539 245.272 935.035 243.224C937.595 241.112 940.667 239.672 944.251 238.904C947.835 238.072 951.931 237.496 956.539 237.176C961.019 236.92 964.411 236.472 966.715 235.832C969.083 235.192 970.267 234.072 970.267 232.472C970.267 227.608 968.635 223.64 965.371 220.568C962.171 217.496 958.011 215.96 952.891 215.96C947.899 215.96 943.771 217.368 940.507 220.184C937.307 223 935.259 226.904 934.363 231.896H932.443C933.019 228.248 934.203 225.08 935.995 222.392C937.851 219.704 940.219 217.656 943.099 216.248C945.979 214.776 949.243 214.04 952.891 214.04C956.731 214.04 960.091 214.84 962.971 216.44C965.915 217.976 968.187 220.184 969.787 223.064C971.387 225.944 972.187 229.272 972.187 233.048V261.08H979.867V263H970.363V249.08C968.699 253.624 965.691 257.272 961.339 260.024C956.987 262.776 952.091 264.152 946.651 264.152ZM946.651 262.232C951.131 262.232 955.163 261.272 958.747 259.352C962.331 257.432 965.147 254.84 967.195 251.576C969.243 248.312 970.267 244.728 970.267 240.824L970.363 236.024C969.339 236.856 967.835 237.496 965.851 237.944C963.867 238.392 961.243 238.712 957.979 238.904C957.787 238.904 957.563 238.936 957.307 239C957.115 239 956.891 239 956.635 239C948.443 239.576 942.491 240.888 938.779 242.936C935.067 244.92 933.211 247.864 933.211 251.768C933.211 255.096 934.395 257.688 936.763 259.544C939.195 261.336 942.491 262.232 946.651 262.232ZM994.31 263V215H996.23V228.824C997.702 224.408 1000.07 220.856 1003.33 218.168C1006.6 215.416 1010.31 214.04 1014.47 214.04C1017.8 214.04 1020.65 214.712 1023.01 216.056C1025.38 217.4 1027.17 219.384 1028.39 222.008C1029.67 224.568 1030.31 227.672 1030.31 231.32V233.24H1028.39V231.32C1028.39 226.392 1027.17 222.616 1024.74 219.992C1022.37 217.304 1018.95 215.96 1014.47 215.96C1011.14 215.96 1008.07 216.952 1005.25 218.936C1002.5 220.92 1000.29 223.608 998.63 227C997.03 230.328 996.23 234.008 996.23 238.04V263H994.31ZM1085.31 263.96C1080.89 263.96 1076.86 262.872 1073.21 260.696C1069.56 258.456 1066.68 255.448 1064.57 251.672C1062.52 247.832 1061.5 243.608 1061.5 239C1061.5 234.392 1062.52 230.2 1064.57 226.424C1066.68 222.584 1069.56 219.576 1073.21 217.4C1076.86 215.16 1080.89 214.04 1085.31 214.04C1090.55 214.04 1095.13 215.448 1099.03 218.264C1103 221.08 1105.85 224.824 1107.58 229.496V194.84H1109.5V263H1107.58V248.504C1105.85 253.176 1103 256.92 1099.03 259.736C1095.13 262.552 1090.55 263.96 1085.31 263.96ZM1085.5 262.04C1089.59 262.04 1093.31 261.048 1096.63 259.064C1100.03 257.016 1102.68 254.232 1104.6 250.712C1106.59 247.192 1107.58 243.288 1107.58 239C1107.58 234.712 1106.59 230.808 1104.6 227.288C1102.68 223.768 1100.03 221.016 1096.63 219.032C1093.31 216.984 1089.59 215.96 1085.5 215.96C1081.4 215.96 1077.66 216.984 1074.27 219.032C1070.94 221.016 1068.28 223.768 1066.3 227.288C1064.38 230.808 1063.42 234.712 1063.42 239C1063.42 243.288 1064.38 247.192 1066.3 250.712C1068.28 254.232 1070.94 257.016 1074.27 259.064C1077.66 261.048 1081.4 262.04 1085.5 262.04ZM1150.3 263.96C1145.69 263.96 1141.47 262.872 1137.63 260.696C1133.85 258.456 1130.85 255.448 1128.61 251.672C1126.43 247.832 1125.34 243.608 1125.34 239C1125.34 234.392 1126.43 230.2 1128.61 226.424C1130.85 222.584 1133.85 219.576 1137.63 217.4C1141.47 215.16 1145.69 214.04 1150.3 214.04C1154.91 214.04 1159.1 215.16 1162.88 217.4C1166.72 219.576 1169.73 222.584 1171.9 226.424C1174.14 230.2 1175.26 234.392 1175.26 239C1175.26 243.608 1174.14 247.832 1171.9 251.672C1169.73 255.448 1166.72 258.456 1162.88 260.696C1159.1 262.872 1154.91 263.96 1150.3 263.96ZM1150.3 262.04C1154.59 262.04 1158.49 261.048 1162.01 259.064C1165.53 257.016 1168.29 254.232 1170.27 250.712C1172.32 247.192 1173.34 243.288 1173.34 239C1173.34 234.712 1172.32 230.808 1170.27 227.288C1168.29 223.768 1165.53 221.016 1162.01 219.032C1158.49 216.984 1154.59 215.96 1150.3 215.96C1146.01 215.96 1142.11 216.984 1138.59 219.032C1135.07 221.016 1132.29 223.768 1130.24 227.288C1128.25 230.808 1127.26 234.712 1127.26 239C1127.26 243.288 1128.25 247.192 1130.24 250.712C1132.29 254.232 1135.07 257.016 1138.59 259.064C1142.11 261.048 1146.01 262.04 1150.3 262.04ZM1191.09 263V194.84H1193.01V263H1191.09ZM1214.15 282.2V215H1216.07V229.496C1217.8 224.824 1220.62 221.08 1224.52 218.264C1228.49 215.448 1233.1 214.04 1238.35 214.04C1242.76 214.04 1246.79 215.16 1250.44 217.4C1254.09 219.576 1256.94 222.584 1258.99 226.424C1261.1 230.2 1262.15 234.392 1262.15 239C1262.15 243.608 1261.1 247.832 1258.99 251.672C1256.94 255.448 1254.09 258.456 1250.44 260.696C1246.79 262.872 1242.76 263.96 1238.35 263.96C1233.1 263.96 1228.49 262.552 1224.52 259.736C1220.62 256.92 1217.8 253.176 1216.07 248.504V282.2H1214.15ZM1238.15 262.04C1242.25 262.04 1245.96 261.048 1249.29 259.064C1252.68 257.016 1255.34 254.232 1257.26 250.712C1259.24 247.192 1260.23 243.288 1260.23 239C1260.23 234.712 1259.24 230.808 1257.26 227.288C1255.34 223.768 1252.68 221.016 1249.29 219.032C1245.96 216.984 1242.25 215.96 1238.15 215.96C1234.06 215.96 1230.31 216.984 1226.92 219.032C1223.59 221.016 1220.94 223.768 1218.95 227.288C1217.03 230.808 1216.07 234.712 1216.07 239C1216.07 243.288 1217.03 247.192 1218.95 250.712C1220.94 254.232 1223.59 257.016 1226.92 259.064C1230.31 261.048 1234.06 262.04 1238.15 262.04ZM1278 263V194.84H1279.92V228.536C1281.52 224.12 1284.08 220.6 1287.6 217.976C1291.12 215.352 1295.15 214.04 1299.69 214.04C1304.17 214.04 1308.01 215 1311.21 216.92C1314.48 218.776 1316.94 221.528 1318.61 225.176C1320.33 228.76 1321.2 233.048 1321.2 238.04V263H1319.28V238.04C1319.28 231.192 1317.52 225.816 1314 221.912C1310.54 217.944 1305.77 215.96 1299.69 215.96C1296.05 215.96 1292.69 216.92 1289.61 218.84C1286.61 220.76 1284.24 223.416 1282.51 226.808C1280.78 230.2 1279.92 233.944 1279.92 238.04V263H1278ZM1341.37 263V215H1343.29V263H1341.37ZM1341.85 206.84L1340.89 191.48H1343.77L1342.81 206.84H1341.85ZM1364.44 263V215H1366.36V228.536C1367.96 224.12 1370.52 220.6 1374.04 217.976C1377.56 215.352 1381.59 214.04 1386.13 214.04C1390.61 214.04 1394.45 215 1397.65 216.92C1400.92 218.776 1403.38 221.528 1405.04 225.176C1406.77 228.76 1407.64 233.048 1407.64 238.04V263H1405.72V238.04C1405.72 231.192 1403.96 225.816 1400.44 221.912C1396.98 217.944 1392.21 215.96 1386.13 215.96C1382.48 215.96 1379.12 216.92 1376.05 218.84C1373.04 220.76 1370.68 223.416 1368.95 226.808C1367.22 230.2 1366.36 233.944 1366.36 238.04V263H1364.44ZM1443.75 263.96C1437.99 263.96 1432.99 262.584 1428.77 259.832C1424.55 257.08 1422.05 253.016 1421.28 247.64H1423.2C1423.97 252.44 1426.27 256.056 1430.11 258.488C1433.95 260.856 1438.47 262.04 1443.65 262.04C1446.08 262.04 1448.58 261.688 1451.14 260.984C1453.76 260.28 1455.97 259.096 1457.76 257.432C1459.62 255.768 1460.55 253.624 1460.55 251C1460.55 248.568 1459.84 246.648 1458.43 245.24C1457.03 243.832 1455.23 242.808 1453.06 242.168C1450.95 241.528 1448 240.888 1444.23 240.248C1443.91 240.184 1443.55 240.12 1443.17 240.056C1442.79 239.992 1442.43 239.928 1442.11 239.864C1437.83 239.16 1434.4 238.456 1431.84 237.752C1429.28 237.048 1427.11 235.896 1425.31 234.296C1423.59 232.696 1422.72 230.456 1422.72 227.576C1422.72 224.44 1423.62 221.88 1425.41 219.896C1427.27 217.848 1429.6 216.376 1432.42 215.48C1435.23 214.52 1438.24 214.04 1441.44 214.04C1446.82 214.04 1451.39 215.416 1455.17 218.168C1459.01 220.856 1461.25 224.76 1461.89 229.88H1459.97C1459.27 225.208 1457.15 221.72 1453.63 219.416C1450.18 217.112 1445.99 215.96 1441.06 215.96C1436.83 215.96 1433.03 216.888 1429.63 218.744C1426.31 220.6 1424.64 223.544 1424.64 227.576C1424.64 229.688 1425.25 231.384 1426.47 232.664C1427.75 233.944 1429.38 234.936 1431.36 235.64C1433.41 236.28 1435.97 236.856 1439.04 237.368C1439.49 237.432 1439.94 237.528 1440.39 237.656C1440.9 237.72 1441.38 237.784 1441.83 237.848C1442.02 237.912 1442.21 237.944 1442.4 237.944C1442.59 237.944 1442.82 237.976 1443.07 238.04C1447.36 238.744 1450.79 239.48 1453.35 240.248C1455.91 241.016 1458.05 242.264 1459.78 243.992C1461.57 245.656 1462.47 247.992 1462.47 251C1462.47 254.072 1461.47 256.568 1459.49 258.488C1457.51 260.408 1455.07 261.816 1452.19 262.712C1449.38 263.544 1446.56 263.96 1443.75 263.96Z" fill="#C6A34A"/>
</g>
<g filter="url(#filter1_d_0_1)">
<path d="M755.088 319C754.768 319 754.608 318.84 754.608 318.52C754.608 318.2 754.768 318.04 755.088 318.04H757.328C757.648 318.04 757.808 317.88 757.808 317.56V298.04C757.808 297.72 757.648 297.56 757.328 297.56H755.088C754.768 297.56 754.608 297.4 754.608 297.08C754.608 296.76 754.768 296.6 755.088 296.6H758.288C758.608 296.6 758.768 296.76 758.768 297.08V317.56C758.768 317.88 758.928 318.04 759.248 318.04H761.488C761.808 318.04 761.968 318.2 761.968 318.52C761.968 318.84 761.808 319 761.488 319H755.088ZM776.583 316.76C776.924 316.504 777.18 316.291 777.351 316.12C777.543 315.949 777.692 315.896 777.799 315.96C777.906 316.003 778.034 316.12 778.183 316.312C778.354 316.483 778.311 316.675 778.055 316.888C777.287 317.549 776.402 318.125 775.399 318.616C774.396 319.085 773.116 319.32 771.559 319.32C769.298 319.32 767.474 318.541 766.087 316.984C764.722 315.427 764.039 313.432 764.039 311C764.039 308.568 764.722 306.573 766.087 305.016C767.474 303.459 769.276 302.68 771.495 302.68C773.735 302.68 775.559 303.384 776.967 304.792C778.375 306.2 779.079 307.896 779.079 309.88V310.36C779.079 311 778.759 311.32 778.119 311.32H765.511C765.148 311.32 764.988 311.48 765.031 311.8C765.159 313.656 765.788 315.213 766.919 316.472C768.071 317.731 769.639 318.36 771.623 318.36C773.628 318.36 775.282 317.827 776.583 316.76ZM765.063 309.976C765.063 310.232 765.212 310.36 765.511 310.36H777.639C777.959 310.36 778.119 310.2 778.119 309.88C778.119 308.173 777.49 306.712 776.231 305.496C774.994 304.259 773.415 303.64 771.495 303.64C769.596 303.64 768.05 304.312 766.855 305.656C765.66 307 765.063 308.44 765.063 309.976ZM794.003 311.16C794.003 310.84 793.843 310.68 793.523 310.68H788.243C786.387 310.68 785.011 311.043 784.115 311.768C783.241 312.493 782.803 313.421 782.803 314.552C782.803 315.661 783.209 316.579 784.019 317.304C784.851 318.008 786.099 318.36 787.763 318.36C789.833 318.36 791.657 317.315 793.235 315.224C793.513 314.861 793.769 314.467 794.003 314.04V311.16ZM789.011 302.68C790.803 302.68 792.243 303.192 793.331 304.216C794.419 305.219 794.963 306.467 794.963 307.96V317.56C794.963 317.88 795.123 318.04 795.443 318.04H797.683C798.003 318.04 798.163 318.2 798.163 318.52C798.163 318.84 798.003 319 797.683 319H794.483C794.163 319 794.003 318.84 794.003 318.52V316.728C794.003 316.515 793.961 316.365 793.875 316.28C793.79 316.195 793.662 316.237 793.491 316.408C792.915 317.133 792.115 317.805 791.091 318.424C790.067 319.021 789.001 319.32 787.891 319.32C785.907 319.32 784.403 318.883 783.379 318.008C782.355 317.112 781.843 315.96 781.843 314.552C781.843 313.144 782.43 311.992 783.603 311.096C784.777 310.179 786.323 309.72 788.243 309.72H793.523C793.843 309.72 794.003 309.56 794.003 309.24V307.96C794.003 306.723 793.534 305.699 792.595 304.888C791.657 304.056 790.505 303.64 789.139 303.64C787.774 303.64 786.654 303.832 785.779 304.216C784.905 304.579 784.286 304.899 783.923 305.176C783.582 305.453 783.315 305.464 783.123 305.208C782.953 304.952 782.985 304.739 783.219 304.568C784.755 303.309 786.686 302.68 789.011 302.68ZM798.761 303H804.841C805.161 303 805.321 303.16 805.321 303.48C805.321 303.8 805.161 303.96 804.841 303.96H802.857C802.473 303.96 802.366 304.12 802.536 304.44L808.105 317.464C808.147 317.592 808.211 317.656 808.297 317.656C808.382 317.656 808.446 317.592 808.489 317.464L814.057 304.44C814.227 304.12 814.121 303.96 813.737 303.96H811.753C811.433 303.96 811.273 303.8 811.273 303.48C811.273 303.16 811.433 303 811.753 303H817.833C818.153 303 818.312 303.16 818.312 303.48C818.312 303.8 818.153 303.96 817.833 303.96H815.753C815.475 303.96 815.262 304.12 815.113 304.44L808.937 318.84C808.766 319.16 808.553 319.32 808.297 319.32C808.041 319.32 807.827 319.16 807.657 318.84L801.481 304.44C801.331 304.12 801.118 303.96 800.841 303.96H798.761C798.441 303.96 798.28 303.8 798.28 303.48C798.28 303.16 798.441 303 798.761 303ZM831.989 316.76C832.331 316.504 832.587 316.291 832.757 316.12C832.949 315.949 833.099 315.896 833.205 315.96C833.312 316.003 833.44 316.12 833.589 316.312C833.76 316.483 833.717 316.675 833.461 316.888C832.693 317.549 831.808 318.125 830.805 318.616C829.803 319.085 828.523 319.32 826.965 319.32C824.704 319.32 822.88 318.541 821.493 316.984C820.128 315.427 819.445 313.432 819.445 311C819.445 308.568 820.128 306.573 821.493 305.016C822.88 303.459 824.683 302.68 826.901 302.68C829.141 302.68 830.965 303.384 832.373 304.792C833.781 306.2 834.485 307.896 834.485 309.88V310.36C834.485 311 834.165 311.32 833.525 311.32H820.917C820.555 311.32 820.395 311.48 820.437 311.8C820.565 313.656 821.195 315.213 822.325 316.472C823.477 317.731 825.045 318.36 827.029 318.36C829.035 318.36 830.688 317.827 831.989 316.76ZM820.469 309.976C820.469 310.232 820.619 310.36 820.917 310.36H833.045C833.365 310.36 833.525 310.2 833.525 309.88C833.525 308.173 832.896 306.712 831.637 305.496C830.4 304.259 828.821 303.64 826.901 303.64C825.003 303.64 823.456 304.312 822.261 305.656C821.067 307 820.469 308.44 820.469 309.976ZM846.57 319C846.25 319 846.09 318.84 846.09 318.52C846.09 318.2 846.25 318.04 846.57 318.04H848.81C849.13 318.04 849.29 317.88 849.29 317.56V304.44C849.29 304.12 849.13 303.96 848.81 303.96H846.57C846.25 303.96 846.09 303.8 846.09 303.48C846.09 303.16 846.25 303 846.57 303H849.77C850.09 303 850.25 303.16 850.25 303.48V317.56C850.25 317.88 850.41 318.04 850.73 318.04H852.97C853.29 318.04 853.45 318.2 853.45 318.52C853.45 318.84 853.29 319 852.97 319H846.57ZM848.682 300.088C848.448 299.832 848.33 299.523 848.33 299.16C848.33 298.797 848.448 298.499 848.682 298.264C848.938 298.008 849.248 297.88 849.61 297.88C849.973 297.88 850.272 298.008 850.506 298.264C850.762 298.499 850.89 298.797 850.89 299.16C850.89 299.523 850.762 299.832 850.506 300.088C850.272 300.323 849.973 300.44 849.61 300.44C849.248 300.44 848.938 300.323 848.682 300.088ZM865.813 316.76C866.026 316.547 866.218 316.525 866.389 316.696C866.559 316.867 866.645 317.005 866.645 317.112C866.666 317.219 866.591 317.357 866.421 317.528C865.909 318.04 865.397 318.424 864.885 318.68C863.562 319.128 862.805 319.341 862.613 319.32C862.421 319.32 862.314 319.32 862.293 319.32C860.799 319.32 859.626 318.84 858.773 317.88C857.919 316.92 857.493 315.533 857.493 313.72V304.44C857.493 304.12 857.333 303.96 857.013 303.96H854.773C854.453 303.96 854.293 303.8 854.293 303.48C854.293 303.16 854.453 303 854.773 303H857.013C857.333 303 857.493 302.84 857.493 302.52V297.08C857.493 296.76 857.653 296.6 857.973 296.6C858.293 296.6 858.453 296.76 858.453 297.08V302.52C858.453 302.84 858.613 303 858.933 303H864.373C864.693 303 864.853 303.16 864.853 303.48C864.853 303.8 864.693 303.96 864.373 303.96H858.933C858.613 303.96 858.453 304.12 858.453 304.44V313.72C858.453 315.256 858.794 316.419 859.477 317.208C860.159 317.976 861.098 318.36 862.293 318.36C863.509 318.36 864.682 317.827 865.813 316.76ZM876.136 303H882.216C882.536 303 882.696 303.16 882.696 303.48C882.696 303.8 882.536 303.96 882.216 303.96H880.296C879.912 303.96 879.805 304.12 879.976 304.44L884.296 316.696C884.338 316.824 884.402 316.888 884.488 316.888C884.573 316.888 884.637 316.824 884.68 316.696L888.872 303.48C888.957 303.16 889.17 303 889.512 303C889.853 303 890.066 303.16 890.152 303.48L894.344 316.696C894.386 316.824 894.45 316.888 894.536 316.888C894.621 316.888 894.685 316.824 894.728 316.696L899.048 304.44C899.218 304.12 899.112 303.96 898.728 303.96H896.808C896.488 303.96 896.328 303.8 896.328 303.48C896.328 303.16 896.488 303 896.808 303H902.888C903.208 303 903.368 303.16 903.368 303.48C903.368 303.8 903.208 303.96 902.888 303.96H900.808C900.488 303.96 900.274 304.12 900.168 304.44L895.08 318.84C894.994 319.16 894.813 319.32 894.536 319.32C894.258 319.32 894.077 319.16 893.992 318.84L889.832 305.72C889.789 305.549 889.682 305.464 889.512 305.464C889.341 305.464 889.234 305.549 889.192 305.72L885.032 318.84C884.946 319.16 884.765 319.32 884.488 319.32C884.21 319.32 884.029 319.16 883.944 318.84L878.856 304.44C878.749 304.12 878.536 303.96 878.216 303.96H876.136C875.816 303.96 875.655 303.8 875.655 303.48C875.655 303.16 875.816 303 876.136 303ZM905.008 319C904.688 319 904.528 318.84 904.528 318.52C904.528 318.2 904.688 318.04 905.008 318.04H907.248C907.568 318.04 907.728 317.88 907.728 317.56V304.44C907.728 304.12 907.568 303.96 907.248 303.96H905.008C904.688 303.96 904.528 303.8 904.528 303.48C904.528 303.16 904.688 303 905.008 303H908.208C908.528 303 908.688 303.16 908.688 303.48V317.56C908.688 317.88 908.848 318.04 909.168 318.04H911.408C911.728 318.04 911.888 318.2 911.888 318.52C911.888 318.84 911.728 319 911.408 319H905.008ZM907.12 300.088C906.885 299.832 906.768 299.523 906.768 299.16C906.768 298.797 906.885 298.499 907.12 298.264C907.376 298.008 907.685 297.88 908.048 297.88C908.41 297.88 908.709 298.008 908.944 298.264C909.2 298.499 909.328 298.797 909.328 299.16C909.328 299.523 909.2 299.832 908.944 300.088C908.709 300.323 908.41 300.44 908.048 300.44C907.685 300.44 907.376 300.323 907.12 300.088ZM924.25 316.76C924.463 316.547 924.655 316.525 924.826 316.696C924.997 316.867 925.082 317.005 925.082 317.112C925.103 317.219 925.029 317.357 924.858 317.528C924.346 318.04 923.834 318.424 923.322 318.68C921.999 319.128 921.242 319.341 921.05 319.32C920.858 319.32 920.751 319.32 920.73 319.32C919.237 319.32 918.063 318.84 917.21 317.88C916.357 316.92 915.93 315.533 915.93 313.72V304.44C915.93 304.12 915.77 303.96 915.45 303.96H913.21C912.89 303.96 912.73 303.8 912.73 303.48C912.73 303.16 912.89 303 913.21 303H915.45C915.77 303 915.93 302.84 915.93 302.52V297.08C915.93 296.76 916.09 296.6 916.41 296.6C916.73 296.6 916.89 296.76 916.89 297.08V302.52C916.89 302.84 917.05 303 917.37 303H922.81C923.13 303 923.29 303.16 923.29 303.48C923.29 303.8 923.13 303.96 922.81 303.96H917.37C917.05 303.96 916.89 304.12 916.89 304.44V313.72C916.89 315.256 917.231 316.419 917.914 317.208C918.597 317.976 919.535 318.36 920.73 318.36C921.946 318.36 923.119 317.827 924.25 316.76ZM926.244 318.04H928.484C928.804 318.04 928.964 317.88 928.964 317.56V298.04C928.964 297.72 928.804 297.56 928.484 297.56H926.244C925.924 297.56 925.764 297.4 925.764 297.08C925.764 296.76 925.924 296.6 926.244 296.6H929.444C929.764 296.6 929.924 296.76 929.924 297.08V305.272C929.924 305.485 929.967 305.635 930.052 305.72C930.138 305.805 930.266 305.763 930.436 305.592C932.164 303.651 934.042 302.68 936.068 302.68C938.095 302.68 939.652 303.235 940.74 304.344C941.85 305.432 942.404 307.011 942.404 309.08V317.56C942.404 317.88 942.564 318.04 942.884 318.04H945.124C945.444 318.04 945.604 318.2 945.604 318.52C945.604 318.84 945.444 319 945.124 319H939.044C938.724 319 938.564 318.84 938.564 318.52C938.564 318.2 938.724 318.04 939.044 318.04H940.964C941.284 318.04 941.444 317.88 941.444 317.56V309.08C941.444 307.267 940.975 305.912 940.036 305.016C939.098 304.099 937.818 303.64 936.196 303.64C934.575 303.64 933.039 304.365 931.588 305.816C930.97 306.456 930.415 307.171 929.924 307.96V317.56C929.924 317.88 930.084 318.04 930.404 318.04H932.324C932.644 318.04 932.804 318.2 932.804 318.52C932.804 318.84 932.644 319 932.324 319H926.244C925.924 319 925.764 318.84 925.764 318.52C925.764 318.2 925.924 318.04 926.244 318.04ZM955.801 303H959.001C959.321 303 959.481 303.16 959.481 303.48V312.92C959.481 314.733 959.95 316.099 960.889 317.016C961.827 317.912 963.107 318.36 964.729 318.36C966.35 318.36 967.875 317.645 969.305 316.216C969.945 315.555 970.51 314.829 971.001 314.04V304.44C971.001 304.12 970.841 303.96 970.521 303.96H968.281C967.961 303.96 967.801 303.8 967.801 303.48C967.801 303.16 967.961 303 968.281 303H971.481C971.801 303 971.961 303.16 971.961 303.48V317.56C971.961 317.88 972.121 318.04 972.441 318.04H974.681C975.001 318.04 975.161 318.2 975.161 318.52C975.161 318.84 975.001 319 974.681 319H971.481C971.161 319 971.001 318.84 971.001 318.52V316.728C971.001 316.515 970.958 316.365 970.873 316.28C970.787 316.195 970.659 316.237 970.489 316.408C968.761 318.349 966.883 319.32 964.857 319.32C962.83 319.32 961.262 318.776 960.153 317.688C959.065 316.579 958.521 314.989 958.521 312.92V304.44C958.521 304.12 958.361 303.96 958.041 303.96H955.801C955.481 303.96 955.321 303.8 955.321 303.48C955.321 303.16 955.481 303 955.801 303ZM985.061 318.36C986.917 318.36 988.336 318.04 989.317 317.4C990.32 316.739 990.821 315.885 990.821 314.84C990.821 313.432 989.808 312.493 987.781 312.024C986.843 311.811 985.712 311.608 984.389 311.416C983.088 311.224 982.139 311.043 981.541 310.872C980.261 310.531 979.301 310.061 978.661 309.464C978.021 308.845 977.701 307.981 977.701 306.872C977.701 305.741 978.267 304.76 979.397 303.928C980.549 303.096 982.149 302.68 984.197 302.68C986.245 302.68 988.069 303.48 989.669 305.08C989.861 305.293 989.989 305.336 990.053 305.208C990.139 305.08 990.181 304.931 990.181 304.76V303.48C990.181 303.16 990.341 303 990.661 303C990.981 303 991.141 303.16 991.141 303.48V308.6C991.141 308.92 990.981 309.08 990.661 309.08C990.341 309.08 990.181 308.92 990.181 308.6V307C989.264 305.784 988.091 304.835 986.661 304.152C985.915 303.811 985.072 303.64 984.133 303.64C982.384 303.64 981.029 303.96 980.069 304.6C979.131 305.219 978.661 306.008 978.661 306.968C978.661 307.928 979.067 308.675 979.877 309.208C980.709 309.72 981.968 310.104 983.653 310.36C984.379 310.488 985.115 310.605 985.861 310.712C986.608 310.819 987.28 310.936 987.877 311.064C989.115 311.341 990.075 311.768 990.757 312.344C991.44 312.92 991.781 313.805 991.781 315C991.781 316.173 991.216 317.187 990.085 318.04C988.976 318.893 987.301 319.32 985.061 319.32C983.312 319.32 981.691 318.808 980.197 317.784C979.771 317.485 979.44 317.219 979.205 316.984C978.971 316.728 978.821 316.664 978.757 316.792C978.693 316.92 978.661 317.069 978.661 317.24V318.52C978.661 318.84 978.501 319 978.181 319C977.861 319 977.701 318.84 977.701 318.52V313.4C977.701 313.08 977.861 312.92 978.181 312.92C978.501 312.92 978.661 313.08 978.661 313.4V315C979.536 316.237 980.731 317.187 982.245 317.848C983.035 318.189 983.973 318.36 985.061 318.36Z" fill="#6C4F03"/>
</g>
<defs>
<filter id="filter0_d_0_1" x="758.44" y="191.48" width="705.026" height="95.72" filterUnits="userSpaceOnUse" color-interpolation-filters="sRGB">
<feFlood flood-opacity="0" result="BackgroundImageFix"/>
<feColorMatrix in="SourceAlpha" type="matrix" values="0 0 0 0 0 0 0 0 0 0 0 0 0 0 0 0 0 0 127 0" result="hardAlpha"/>
<feOffset dy="4"/>
<feGaussianBlur stdDeviation="0.5"/>
<feComposite in2="hardAlpha" operator="out"/>
<feColorMatrix type="matrix" values="0 0 0 0 1 0 0 0 0 1 0 0 0 0 1 0 0 0 0.25 0"/>
<feBlend mode="normal" in2="BackgroundImageFix" result="effect1_dropShadow_0_1"/>
<feBlend mode="normal" in="SourceGraphic" in2="effect1_dropShadow_0_1" result="shape"/>
</filter>
<filter id="filter1_d_0_1" x="753.608" y="296.6" width="239.173" height="27.7521" filterUnits="userSpaceOnUse" color-interpolation-filters="sRGB">
<feFlood flood-opacity="0" result="BackgroundImageFix"/>
<feColorMatrix in="SourceAlpha" type="matrix" values="0 0 0 0 0 0 0 0 0 0 0 0 0 0 0 0 0 0 127 0" result="hardAlpha"/>
<feOffset dy="4"/>
<feGaussianBlur stdDeviation="0.5"/>
<feComposite in2="hardAlpha" operator="out"/>
<feColorMatrix type="matrix" values="0 0 0 0 1 0 0 0 0 1 0 0 0 0 1 0 0 0 0.25 0"/>
<feBlend mode="normal" in2="BackgroundImageFix" result="effect1_dropShadow_0_1"/>
<feBlend mode="normal" in="SourceGraphic" in2="effect1_dropShadow_0_1" result="shape"/>
</filter>
<linearGradient id="paint0_linear_0_1" x1="757" y1="434" x2="1202.5" y2="1249.5" gradientUnits="userSpaceOnUse">
<stop stop-color="#E1ECF9"/>
<stop offset="0.65" stop-color="#DBE5F1"/>
</linearGradient>
<clipPath id="clip0_0_1">
<rect width="1510" height="930" fill="white"/>
</clipPath>
</defs>
</svg>
