<svg
										width="706"
										height="97"
										viewBox="0 0 706 97"
										fill="none"
										xmlns="http://www.w3.org/2000/svg"
									>
										<g filter="url(#filter0_d_5_166)">
											<path
												d="M1.44 72V4.8H3.36V70.08H40.8V72H1.44ZM71.8853 72.96C67.4053 72.96 63.5333 72.032 60.2693 70.176C57.0693 68.256 54.6053 65.504 52.8773 61.92C51.2133 58.272 50.3813 53.952 50.3813 48.96V24H52.3013V48.96C52.3013 55.808 54.0293 61.216 57.4853 65.184C61.0053 69.088 65.8053 71.04 71.8853 71.04C75.5333 71.04 78.8613 70.08 81.8693 68.16C84.9413 66.24 87.3413 63.584 89.0693 60.192C90.7973 56.8 91.6613 53.056 91.6613 48.96V24H93.5813V72H91.6613V58.464C90.0613 62.88 87.5013 66.4 83.9813 69.024C80.4613 71.648 76.4293 72.96 71.8853 72.96ZM114.716 72V24H116.636V37.536C118.236 33.12 120.796 29.6 124.316 26.976C127.836 24.352 131.868 23.04 136.412 23.04C140.892 23.04 144.732 24 147.932 25.92C151.196 27.776 153.66 30.528 155.324 34.176C157.052 37.76 157.916 42.048 157.916 47.04V72H155.996V47.04C155.996 40.192 154.236 34.816 150.716 30.912C147.26 26.944 142.492 24.96 136.412 24.96C132.764 24.96 129.404 25.92 126.332 27.84C123.324 29.76 120.956 32.416 119.228 35.808C117.5 39.2 116.636 42.944 116.636 47.04V72H114.716ZM188.651 73.152C183.659 73.152 179.851 72.032 177.227 69.792C174.603 67.552 173.291 64.544 173.291 60.768C173.291 57.12 174.539 54.272 177.035 52.224C179.595 50.112 182.667 48.672 186.251 47.904C189.835 47.072 193.931 46.496 198.539 46.176C203.019 45.92 206.411 45.472 208.715 44.832C211.083 44.192 212.267 43.072 212.267 41.472C212.267 36.608 210.635 32.64 207.371 29.568C204.171 26.496 200.011 24.96 194.891 24.96C189.899 24.96 185.771 26.368 182.507 29.184C179.307 32 177.259 35.904 176.363 40.896H174.443C175.019 37.248 176.203 34.08 177.995 31.392C179.851 28.704 182.219 26.656 185.099 25.248C187.979 23.776 191.243 23.04 194.891 23.04C198.731 23.04 202.091 23.84 204.971 25.44C207.915 26.976 210.187 29.184 211.787 32.064C213.387 34.944 214.187 38.272 214.187 42.048V70.08H221.867V72H212.363V58.08C210.699 62.624 207.691 66.272 203.339 69.024C198.987 71.776 194.091 73.152 188.651 73.152ZM188.651 71.232C193.131 71.232 197.163 70.272 200.747 68.352C204.331 66.432 207.147 63.84 209.195 60.576C211.243 57.312 212.267 53.728 212.267 49.824L212.363 45.024C211.339 45.856 209.835 46.496 207.851 46.944C205.867 47.392 203.243 47.712 199.979 47.904C199.787 47.904 199.563 47.936 199.307 48C199.115 48 198.891 48 198.635 48C190.443 48.576 184.491 49.888 180.779 51.936C177.067 53.92 175.211 56.864 175.211 60.768C175.211 64.096 176.395 66.688 178.763 68.544C181.195 70.336 184.491 71.232 188.651 71.232ZM236.31 72V24H238.23V37.824C239.702 33.408 242.07 29.856 245.334 27.168C248.598 24.416 252.31 23.04 256.47 23.04C259.798 23.04 262.646 23.712 265.014 25.056C267.382 26.4 269.174 28.384 270.39 31.008C271.67 33.568 272.31 36.672 272.31 40.32V42.24H270.39V40.32C270.39 35.392 269.174 31.616 266.742 28.992C264.374 26.304 260.95 24.96 256.47 24.96C253.142 24.96 250.07 25.952 247.254 27.936C244.502 29.92 242.294 32.608 240.63 36C239.03 39.328 238.23 43.008 238.23 47.04V72H236.31ZM327.307 72.96C322.891 72.96 318.859 71.872 315.211 69.696C311.563 67.456 308.683 64.448 306.571 60.672C304.523 56.832 303.499 52.608 303.499 48C303.499 43.392 304.523 39.2 306.571 35.424C308.683 31.584 311.563 28.576 315.211 26.4C318.859 24.16 322.891 23.04 327.307 23.04C332.555 23.04 337.131 24.448 341.035 27.264C345.003 30.08 347.851 33.824 349.579 38.496V3.84H351.499V72H349.579V57.504C347.851 62.176 345.003 65.92 341.035 68.736C337.131 71.552 332.555 72.96 327.307 72.96ZM327.499 71.04C331.595 71.04 335.307 70.048 338.635 68.064C342.027 66.016 344.683 63.232 346.603 59.712C348.587 56.192 349.579 52.288 349.579 48C349.579 43.712 348.587 39.808 346.603 36.288C344.683 32.768 342.027 30.016 338.635 28.032C335.307 25.984 331.595 24.96 327.499 24.96C323.403 24.96 319.659 25.984 316.267 28.032C312.939 30.016 310.283 32.768 308.299 36.288C306.379 39.808 305.419 43.712 305.419 48C305.419 52.288 306.379 56.192 308.299 59.712C310.283 63.232 312.939 66.016 316.267 68.064C319.659 70.048 323.403 71.04 327.499 71.04ZM392.303 72.96C387.695 72.96 383.471 71.872 379.631 69.696C375.855 67.456 372.847 64.448 370.607 60.672C368.431 56.832 367.343 52.608 367.343 48C367.343 43.392 368.431 39.2 370.607 35.424C372.847 31.584 375.855 28.576 379.631 26.4C383.471 24.16 387.695 23.04 392.303 23.04C396.911 23.04 401.103 24.16 404.879 26.4C408.719 28.576 411.727 31.584 413.903 35.424C416.143 39.2 417.263 43.392 417.263 48C417.263 52.608 416.143 56.832 413.903 60.672C411.727 64.448 408.719 67.456 404.879 69.696C401.103 71.872 396.911 72.96 392.303 72.96ZM392.303 71.04C396.591 71.04 400.495 70.048 404.015 68.064C407.535 66.016 410.287 63.232 412.271 59.712C414.319 56.192 415.343 52.288 415.343 48C415.343 43.712 414.319 39.808 412.271 36.288C410.287 32.768 407.535 30.016 404.015 28.032C400.495 25.984 396.591 24.96 392.303 24.96C388.015 24.96 384.111 25.984 380.591 28.032C377.071 30.016 374.287 32.768 372.239 36.288C370.255 39.808 369.263 43.712 369.263 48C369.263 52.288 370.255 56.192 372.239 59.712C374.287 63.232 377.071 66.016 380.591 68.064C384.111 70.048 388.015 71.04 392.303 71.04ZM433.091 72V3.84H435.011V72H433.091ZM456.154 91.2V24H458.074V38.496C459.802 33.824 462.618 30.08 466.522 27.264C470.49 24.448 475.098 23.04 480.346 23.04C484.762 23.04 488.794 24.16 492.442 26.4C496.09 28.576 498.938 31.584 500.986 35.424C503.098 39.2 504.154 43.392 504.154 48C504.154 52.608 503.098 56.832 500.986 60.672C498.938 64.448 496.09 67.456 492.442 69.696C488.794 71.872 484.762 72.96 480.346 72.96C475.098 72.96 470.49 71.552 466.522 68.736C462.618 65.92 459.802 62.176 458.074 57.504V91.2H456.154ZM480.154 71.04C484.25 71.04 487.962 70.048 491.29 68.064C494.682 66.016 497.338 63.232 499.258 59.712C501.242 56.192 502.234 52.288 502.234 48C502.234 43.712 501.242 39.808 499.258 36.288C497.338 32.768 494.682 30.016 491.29 28.032C487.962 25.984 484.25 24.96 480.154 24.96C476.058 24.96 472.314 25.984 468.922 28.032C465.594 30.016 462.938 32.768 460.954 36.288C459.034 39.808 458.074 43.712 458.074 48C458.074 52.288 459.034 56.192 460.954 59.712C462.938 63.232 465.594 66.016 468.922 68.064C472.314 70.048 476.058 71.04 480.154 71.04ZM519.998 72V3.84H521.918V37.536C523.518 33.12 526.078 29.6 529.598 26.976C533.118 24.352 537.15 23.04 541.694 23.04C546.174 23.04 550.014 24 553.214 25.92C556.478 27.776 558.942 30.528 560.606 34.176C562.334 37.76 563.198 42.048 563.198 47.04V72H561.278V47.04C561.278 40.192 559.518 34.816 555.998 30.912C552.542 26.944 547.774 24.96 541.694 24.96C538.046 24.96 534.686 25.92 531.614 27.84C528.606 29.76 526.238 32.416 524.51 35.808C522.782 39.2 521.918 42.944 521.918 47.04V72H519.998ZM583.373 72V24H585.293V72H583.373ZM583.853 15.84L582.893 0.479994H585.773L584.812 15.84H583.853ZM606.435 72V24H608.355V37.536C609.955 33.12 612.515 29.6 616.035 26.976C619.555 24.352 623.587 23.04 628.131 23.04C632.611 23.04 636.451 24 639.651 25.92C642.915 27.776 645.379 30.528 647.043 34.176C648.771 37.76 649.635 42.048 649.635 47.04V72H647.715V47.04C647.715 40.192 645.955 34.816 642.435 30.912C638.979 26.944 634.211 24.96 628.131 24.96C624.483 24.96 621.123 25.92 618.051 27.84C615.043 29.76 612.675 32.416 610.947 35.808C609.219 39.2 608.355 42.944 608.355 47.04V72H606.435ZM685.746 72.96C679.986 72.96 674.994 71.584 670.77 68.832C666.546 66.08 664.05 62.016 663.282 56.64H665.202C665.97 61.44 668.274 65.056 672.114 67.488C675.954 69.856 680.466 71.04 685.65 71.04C688.082 71.04 690.578 70.688 693.138 69.984C695.762 69.28 697.97 68.096 699.762 66.432C701.618 64.768 702.546 62.624 702.546 60C702.546 57.568 701.842 55.648 700.434 54.24C699.026 52.832 697.234 51.808 695.058 51.168C692.946 50.528 690.002 49.888 686.226 49.248C685.906 49.184 685.554 49.12 685.17 49.056C684.786 48.992 684.434 48.928 684.114 48.864C679.826 48.16 676.402 47.456 673.842 46.752C671.282 46.048 669.106 44.896 667.314 43.296C665.586 41.696 664.722 39.456 664.722 36.576C664.722 33.44 665.618 30.88 667.41 28.896C669.266 26.848 671.602 25.376 674.418 24.48C677.234 23.52 680.242 23.04 683.442 23.04C688.818 23.04 693.394 24.416 697.17 27.168C701.01 29.856 703.25 33.76 703.89 38.88H701.97C701.266 34.208 699.154 30.72 695.634 28.416C692.178 26.112 687.986 24.96 683.058 24.96C678.834 24.96 675.026 25.888 671.634 27.744C668.306 29.6 666.642 32.544 666.642 36.576C666.642 38.688 667.25 40.384 668.466 41.664C669.746 42.944 671.378 43.936 673.362 44.64C675.41 45.28 677.97 45.856 681.042 46.368C681.49 46.432 681.938 46.528 682.386 46.656C682.898 46.72 683.378 46.784 683.826 46.848C684.018 46.912 684.21 46.944 684.402 46.944C684.594 46.944 684.818 46.976 685.074 47.04C689.362 47.744 692.786 48.48 695.346 49.248C697.906 50.016 700.05 51.264 701.778 52.992C703.57 54.656 704.466 56.992 704.466 60C704.466 63.072 703.474 65.568 701.49 67.488C699.506 69.408 697.074 70.816 694.194 71.712C691.378 72.544 688.562 72.96 685.746 72.96Z"
												fill="#C6A34A"
											/>
										</g>
										<defs>
											<filter
												id="filter0_d_5_166"
												x="0.439941"
												y="0.47998"
												width="705.026"
												height="95.72"
												filterUnits="userSpaceOnUse"
												color-interpolation-filters="sRGB"
											>
												<feFlood
													flood-opacity="0"
													result="BackgroundImageFix"
												/>
												<feColorMatrix
													in="SourceAlpha"
													type="matrix"
													values="0 0 0 0 0 0 0 0 0 0 0 0 0 0 0 0 0 0 127 0"
													result="hardAlpha"
												/>
												<feOffset dy="4" />
												<feGaussianBlur stdDeviation="0.5" />
												<feComposite in2="hardAlpha" operator="out" />
												<feColorMatrix
													type="matrix"
													values="0 0 0 0 1 0 0 0 0 1 0 0 0 0 1 0 0 0 0.25 0"
												/>
												<feBlend
													mode="normal"
													in2="BackgroundImageFix"
													result="effect1_dropShadow_5_166"
												/>
												<feBlend
													mode="normal"
													in="SourceGraphic"
													in2="effect1_dropShadow_5_166"
													result="shape"
												/>
											</filter>
										</defs>
									</svg>