<svg width="848" height="826" viewBox="0 0 848 826" fill="none" xmlns="http://www.w3.org/2000/svg">
<path d="M827.32 345.619C812.758 474.776 736.671 589.276 639.267 663.723C631.362 669.771 623.262 675.572 614.965 681.128C613.925 681.825 612.885 682.523 611.845 683.207C553.965 721.262 487.655 745.639 421.039 738.036C366.916 731.868 313.772 700.317 282.055 653.184C281.455 652.299 280.856 651.387 280.28 650.488C267.36 630.851 258.598 608.305 254.632 584.489C248.93 549.236 253.36 510.256 235.641 480.18C212.661 441.159 163.445 434.803 121.094 436.265C81.5083 437.619 41.984 442.312 2.44733 444.753C1.63971 444.806 0.819856 444.847 0 444.9V30.4252C0.00886325 22.3589 2.93694 14.6258 8.14196 8.92207C13.347 3.21834 20.404 0.00971247 27.765 0H199.971C208.305 1.19341 214.203 19.5102 222.511 20.1136C226.109 20.3818 229.702 20.5964 233.292 20.7573C252.173 21.6154 271.03 21.2534 289.862 20.1136C300.863 19.4566 314.311 1.09955 325.299 0H643.281C645.655 0.858182 648.004 1.75659 650.354 2.68182C660.477 6.67942 670.366 11.3546 679.966 16.6809C785.887 75.5334 841.882 216.463 827.32 345.619Z" fill="#3F3D56"/>
<path d="M694.295 173.165C644.994 223.449 579.687 255.711 512.606 263.448C506.022 264.213 499.423 264.736 492.807 265.017C491.338 265.084 489.87 265.125 488.389 265.165C485.991 265.232 483.58 265.259 481.182 265.259C478.306 265.259 475.431 265.214 472.555 265.125C455.909 264.592 439.329 262.606 422.972 259.184C422.372 259.05 421.785 258.93 421.186 258.795C418.604 258.246 416.03 257.656 413.464 257.025C408.545 255.832 403.65 254.509 398.78 253.056C397.202 252.587 395.623 252.104 394.045 251.595C391.781 250.884 389.529 250.133 387.278 249.369C386.433 249.074 385.589 248.792 384.745 248.484C383.888 248.189 383.032 247.88 382.175 247.559C376.95 245.681 371.77 243.643 366.635 241.444C337.388 229.062 310.01 211.926 285.42 190.61C282.018 187.647 278.567 184.536 275.239 181.519C257.349 165.348 238.847 148.626 216.295 144.979C191.944 141.05 168.548 153.199 145.934 164.945C138.262 168.928 130.333 173.044 122.489 176.49C84.1993 193.018 42.0011 195.229 2.44733 182.779C1.62747 182.538 0.807619 182.27 0 182.002V179.199C0.807619 179.467 1.62747 179.735 2.44733 179.99C41.6696 192.502 83.5724 190.394 121.583 173.996C129.354 170.59 137.259 166.487 144.894 162.518C167.838 150.598 191.565 138.275 216.65 142.324C239.875 146.079 258.646 163.041 276.793 179.454C280.121 182.458 283.56 185.568 286.937 188.518C311.364 209.697 338.566 226.717 367.626 239.004H367.638C372.557 241.095 377.537 243.067 382.542 244.89C383.264 245.145 383.986 245.4 384.708 245.668C385.516 245.95 386.336 246.231 387.143 246.513C389.211 247.237 391.283 247.925 393.359 248.578C395.391 249.248 397.434 249.883 399.49 250.482H399.502C404.764 252.051 410.058 253.468 415.385 254.733C417.796 255.323 420.207 255.859 422.642 256.368C423.168 256.489 423.706 256.596 424.245 256.704C439.937 259.949 455.835 261.859 471.796 262.416H471.809C477.352 262.604 482.887 262.626 488.414 262.483C489.858 262.443 491.289 262.389 492.721 262.335C498.974 262.067 505.219 261.585 511.455 260.887H511.468C578.341 253.392 643.489 221.317 692.631 171.194C692.87 170.954 693.186 170.827 693.51 170.842C693.834 170.856 694.139 171.011 694.359 171.271C694.579 171.532 694.696 171.878 694.684 172.233C694.672 172.587 694.532 172.923 694.295 173.165Z" fill="#30674E"/>
<path d="M0.379333 121.942C0.304012 122.285 0.175722 122.612 0 122.908V119.167C0.446829 120.004 0.582643 120.998 0.379333 121.942Z" fill="#FF6584"/>
<path d="M10.0351 136.145C10.2806 133.737 9.24048 131.634 7.7119 131.446C6.18333 131.259 4.74514 133.059 4.49962 135.467C4.25409 137.875 5.29421 139.979 6.82278 140.166C8.35135 140.353 9.78955 138.553 10.0351 136.145Z" fill="#E6E6E6"/>
<path d="M13.4403 164.583C13.6859 162.175 12.6457 160.071 11.1172 159.884C9.5886 159.697 8.15041 161.497 7.90489 163.905C7.65936 166.313 8.69948 168.417 10.2281 168.604C11.7566 168.791 13.1948 166.991 13.4403 164.583Z" fill="#3F3D56"/>
<path d="M617.903 391.366C618.5 388.78 616.236 385.921 612.845 384.98C609.454 384.038 606.22 385.37 605.622 387.955C605.024 390.54 607.289 393.399 610.68 394.341C614.071 395.283 617.305 393.951 617.903 391.366Z" fill="white"/>
<path d="M576.489 391.073C577.087 388.488 574.823 385.629 571.431 384.687C568.04 383.745 564.806 385.078 564.209 387.663C563.611 390.248 565.875 393.107 569.266 394.049C572.658 394.99 575.891 393.658 576.489 391.073Z" fill="#3F3D56"/>
<path d="M625.674 429.016C626.272 426.431 624.007 423.572 620.616 422.63C617.225 421.688 613.991 423.021 613.393 425.606C612.796 428.191 615.06 431.05 618.451 431.992C621.842 432.934 625.076 431.601 625.674 429.016Z" fill="#FF6584"/>
<path d="M635.328 443.213C635.573 440.806 634.533 438.702 633.005 438.515C631.476 438.328 630.038 440.128 629.792 442.536C629.547 444.943 630.587 447.047 632.116 447.234C633.644 447.421 635.082 445.621 635.328 443.213Z" fill="#E6E6E6"/>
<path d="M638.733 471.651C638.979 469.243 637.939 467.14 636.41 466.952C634.881 466.765 633.443 468.565 633.198 470.973C632.952 473.381 633.992 475.485 635.521 475.672C637.049 475.859 638.488 474.059 638.733 471.651Z" fill="#3F3D56"/>
<path d="M596.394 417.457C596.64 415.049 595.599 412.945 594.071 412.758C592.542 412.571 591.104 414.371 590.859 416.779C590.613 419.187 591.653 421.291 593.182 421.478C594.71 421.665 596.149 419.865 596.394 417.457Z" fill="#E6E6E6"/>
<path d="M617.235 408.877C617.481 406.469 616.441 404.366 614.912 404.179C613.383 403.991 611.945 405.792 611.7 408.199C611.454 410.607 612.494 412.711 614.023 412.898C615.551 413.085 616.99 411.285 617.235 408.877Z" fill="#FF6584"/>
<path d="M591.56 385.698C591.805 383.29 590.765 381.186 589.237 380.999C587.708 380.812 586.27 382.612 586.024 385.02C585.779 387.428 586.819 389.531 588.348 389.719C589.876 389.906 591.314 388.105 591.56 385.698Z" fill="#3F3D56"/>
<path d="M61.1349 73.5701C61.7327 70.985 59.4683 68.1259 56.0771 67.1841C52.6859 66.2424 49.4521 67.5746 48.8542 70.1598C48.2564 72.7449 50.5208 75.604 53.9121 76.5458C57.3033 77.4875 60.537 76.1553 61.1349 73.5701Z" fill="white"/>
<path d="M19.7217 73.2775C20.3195 70.6924 18.0551 67.8333 14.6639 66.8915C11.2727 65.9498 8.03888 67.282 7.44103 69.8671C6.84318 72.4523 9.10763 75.3114 12.4988 76.2532C15.8901 77.1949 19.1238 75.8627 19.7217 73.2775Z" fill="#3F3D56"/>
<path d="M68.9064 111.221C69.5042 108.636 67.2398 105.777 63.8486 104.835C60.4573 103.893 57.2236 105.225 56.6257 107.81C56.0279 110.396 58.2923 113.255 61.6835 114.196C65.0747 115.138 68.3085 113.806 68.9064 111.221Z" fill="#FF6584"/>
<path d="M78.5602 125.418C78.8057 123.01 77.7656 120.906 76.2371 120.719C74.7085 120.532 73.2703 122.332 73.0248 124.74C72.7792 127.148 73.8194 129.252 75.3479 129.439C76.8765 129.626 78.3147 127.826 78.5602 125.418Z" fill="#E6E6E6"/>
<path d="M81.9656 153.856C82.2111 151.448 81.171 149.344 79.6424 149.157C78.1138 148.97 76.6757 150.77 76.4302 153.178C76.1846 155.586 77.2247 157.689 78.7533 157.877C80.2819 158.064 81.7201 156.264 81.9656 153.856Z" fill="#3F3D56"/>
<path d="M39.6265 99.6616C39.872 97.2538 38.8319 95.1501 37.3033 94.9629C35.7748 94.7758 34.3366 96.576 34.091 98.9838C33.8455 101.392 34.8856 103.495 36.4142 103.683C37.9428 103.87 39.381 102.069 39.6265 99.6616Z" fill="#E6E6E6"/>
<path d="M60.4676 91.0819C60.7131 88.6741 59.673 86.5704 58.1444 86.3832C56.6158 86.1961 55.1776 87.9963 54.9321 90.4041C54.6866 92.812 55.7267 94.9156 57.2553 95.1028C58.7838 95.29 60.222 93.4898 60.4676 91.0819Z" fill="#FF6584"/>
<path d="M34.7923 67.9022C35.0378 65.4944 33.9977 63.3907 32.4691 63.2035C30.9405 63.0164 29.5023 64.8166 29.2568 67.2244C29.0113 69.6323 30.0514 71.736 31.58 71.9231C33.1086 72.1103 34.5467 70.3101 34.7923 67.9022Z" fill="#3F3D56"/>
<path d="M193.795 265.628C196.499 265.628 198.69 263.226 198.69 260.264C198.69 257.302 196.499 254.901 193.795 254.901C191.092 254.901 188.901 257.302 188.901 260.264C188.901 263.226 191.092 265.628 193.795 265.628Z" fill="white"/>
<path d="M73.876 316.582C75.2277 316.582 76.3234 315.382 76.3234 313.901C76.3234 312.419 75.2277 311.219 73.876 311.219C72.5244 311.219 71.4287 312.419 71.4287 313.901C71.4287 315.382 72.5244 316.582 73.876 316.582Z" fill="white"/>
<path d="M559.671 516.378C561.023 516.378 562.119 515.177 562.119 513.696C562.119 512.215 561.023 511.014 559.671 511.014C558.32 511.014 557.224 512.215 557.224 513.696C557.224 515.177 558.32 516.378 559.671 516.378Z" fill="white"/>
<path d="M243.966 393.014C245.317 393.014 246.413 391.813 246.413 390.332C246.413 388.851 245.317 387.651 243.966 387.651C242.614 387.651 241.518 388.851 241.518 390.332C241.518 391.813 242.614 393.014 243.966 393.014Z" fill="white"/>
<path d="M288.018 112.764C289.369 112.764 290.465 111.563 290.465 110.082C290.465 108.601 289.369 107.401 288.018 107.401C286.666 107.401 285.57 108.601 285.57 110.082C285.57 111.563 286.666 112.764 288.018 112.764Z" fill="white"/>
<path d="M688.156 216.014C689.508 216.014 690.603 214.813 690.603 213.332C690.603 211.851 689.508 210.651 688.156 210.651C686.804 210.651 685.709 211.851 685.709 213.332C685.709 214.813 686.804 216.014 688.156 216.014Z" fill="white"/>
<path d="M119.152 76.5597C120.503 76.5597 121.599 75.359 121.599 73.8779C121.599 72.3967 120.503 71.196 119.152 71.196C117.8 71.196 116.704 72.3967 116.704 73.8779C116.704 75.359 117.8 76.5597 119.152 76.5597Z" fill="white"/>
<path d="M564.566 63.1505C567.269 63.1505 569.46 60.7491 569.46 57.7869C569.46 54.8246 567.269 52.4232 564.566 52.4232C561.863 52.4232 559.671 54.8246 559.671 57.7869C559.671 60.7491 561.863 63.1505 564.566 63.1505Z" fill="white"/>
<path d="M783.599 770.486H781.151C781.151 755.012 767.923 739.873 741.823 725.485C716.285 711.406 679.673 698.748 633.027 687.873C626.125 686.264 619.065 684.708 611.845 683.206C574.499 675.429 533.004 669.06 488.561 664.219C479.371 663.213 470.051 662.279 460.6 661.417C457.541 661.122 454.457 660.854 451.361 660.572C442.759 659.834 434.067 659.146 425.285 658.507C379.446 655.182 331.32 653.371 282.055 653.184C279.155 653.157 276.242 653.157 273.33 653.157C209.173 653.157 194.685 659.794 193.829 665.372C191.638 679.479 265.841 707.812 337.597 735.234C417.025 765.565 498.656 796.755 526.458 823.318C527.4 824.216 528.281 825.115 529.101 826H525.736C524.842 825.115 523.876 824.216 522.848 823.318C493.492 797.626 411.152 766.169 336.789 737.755C245.088 702.73 189.007 680.471 191.406 664.916C192.446 658.185 202.7 650.475 273.33 650.475C275.643 650.475 277.968 650.475 280.281 650.488C329.533 650.636 377.66 652.406 423.547 655.704C432.517 656.335 441.397 657.032 450.187 657.796C453.454 658.078 456.709 658.359 459.951 658.668C469.643 659.553 479.208 660.509 488.646 661.537C534.265 666.499 576.811 673.069 614.965 681.128C621.279 682.469 627.471 683.846 633.54 685.258C730.308 707.812 783.599 738.076 783.599 770.486Z" fill="#E6E6E6"/>
<path d="M745.668 764.022H743.221C743.221 752.57 700.529 740.31 636.977 740.31C573.424 740.31 530.733 752.57 530.733 764.022H528.285C528.285 747.5 583.549 737.628 636.977 737.628C690.404 737.628 745.668 747.5 745.668 764.022Z" fill="#E6E6E6"/>
<path d="M702.966 771.821H700.519C700.519 765.354 674.569 758.146 637.333 758.146C600.096 758.146 574.147 765.354 574.147 771.821H571.699C571.699 761.197 605.515 755.464 637.333 755.464C669.15 755.464 702.966 761.197 702.966 771.821Z" fill="#E6E6E6"/>
<path d="M440.976 179.81C468.008 179.81 489.922 155.796 489.922 126.173C489.922 96.5507 468.008 72.5369 440.976 72.5369C413.943 72.5369 392.029 96.5507 392.029 126.173C392.029 155.796 413.943 179.81 440.976 179.81Z" fill="#F2F2F2"/>
<path d="M433.634 183.832C460.666 183.832 482.58 159.819 482.58 130.196C482.58 100.574 460.666 76.5597 433.634 76.5597C406.601 76.5597 384.687 100.574 384.687 130.196C384.687 159.819 406.601 183.832 433.634 183.832Z" fill="#F2F2F2"/>
<path d="M487.474 717.441L441.596 717.439V716.803C441.597 711.614 443.478 706.637 446.827 702.967C450.176 699.298 454.717 697.236 459.453 697.236L467.835 690.269L483.47 697.237L487.475 697.237L487.474 717.441Z" fill="#F2F2F2"/>
<path d="M466.117 690.288L426.92 716.412L426.619 715.869C424.158 711.435 423.405 706.112 424.526 701.069C425.647 696.027 428.549 691.679 432.595 688.982L436.452 678.257L453.115 675.306L456.536 673.026L466.117 690.288Z" fill="#F2F2F2"/>
<path d="M493.067 547.849C492.859 549.458 492.553 554.929 492.198 562.894C490.473 601.512 487.475 698.742 487.475 698.742L468.79 692.372C468.79 692.372 446.568 618.917 450.239 578.69L447.596 564.691L443.068 540.769V540.756L429.277 467.904C429.277 467.904 426.255 487.642 426.01 492.268C425.766 496.894 423.318 498.235 422.095 498.235C415.964 498.235 417.848 497.042 418.742 503.68C419.39 508.453 414.079 535.821 411.045 550.786C409.87 556.605 409.038 560.547 409.038 560.547L414.226 572.803L457.238 674.444L440.976 683.992L376.097 578.623L369.697 568.231L368.327 556.578L357.534 464.9C357.534 464.9 354.169 454.535 357.534 454.267C360.911 453.985 362.82 455.152 361.866 451.223C360.911 447.281 380.49 381.576 380.49 381.576L482.054 405.713C482.054 405.713 492.064 427.516 488.172 437.895C484.269 448.273 491.366 528.647 487.316 532.214C483.278 535.781 480.671 532.925 486.251 539.053C487.105 540.029 488.112 540.828 489.225 541.413C492.675 543.129 494.046 540.34 493.067 547.849Z" fill="#F2F2F2"/>
<path d="M433.315 163.612C448.897 163.612 461.528 149.77 461.528 132.696C461.528 115.622 448.897 101.781 433.315 101.781C417.734 101.781 405.103 115.622 405.103 132.696C405.103 149.77 417.734 163.612 433.315 163.612Z" fill="#A0616A"/>
<path d="M455.301 159.322L444.116 161.668C444.116 161.668 454.518 143.271 453.906 134.85C453.294 126.429 444.924 123.412 444.924 123.412C444.924 123.412 440.286 124.512 435.404 125.129C434.819 123.324 434.06 121.594 433.14 119.966C432.959 122.067 432.11 124.032 430.742 125.517C428.953 125.686 427.151 125.458 425.443 124.847C423.51 123.882 423.547 122.205 424.183 120.637C417.881 121.206 411.732 123.057 406.048 126.094C405.767 121.977 405.911 117.839 406.477 113.758C406.746 113.677 407.015 113.583 407.284 113.489C408.952 112.911 410.56 112.143 412.081 111.197C410.388 110.95 408.806 110.135 407.553 108.863C408.581 105.565 410.221 102.709 412.803 101.314C415.294 99.979 418.018 99.2462 420.79 99.1652C423.562 99.0842 426.317 99.657 428.87 100.845C428.87 100.845 422.886 96.0576 425.089 94.0999C425.235 94.2608 425.382 94.4083 425.541 94.5558C425.749 94.7435 425.982 94.9447 426.202 95.1324C427.56 96.3392 429.592 94.6363 429.861 92.8127C429.89 92.5823 429.931 92.354 429.983 92.1288C430.02 91.941 430.069 91.7533 430.118 91.579C430.159 91.4243 430.208 91.2721 430.265 91.1231C434.339 90.0504 446.662 94.4083 451.397 104.009C451.397 104.009 484.497 121.441 455.301 159.322Z" fill="#3F3D56"/>
<path d="M445.081 434.959C444.673 431.871 445.381 428.73 447.054 426.205C448.727 423.68 451.233 421.969 454.039 421.438C454.611 421.34 455.19 421.294 455.768 421.3L485.267 346.234L505.504 362.883L466.103 433.996C465.893 436.625 464.895 439.103 463.264 441.044C461.634 442.985 459.463 444.28 457.09 444.727C455.737 444.967 454.355 444.913 453.022 444.568C451.688 444.222 450.43 443.593 449.319 442.714C448.208 441.836 447.265 440.727 446.545 439.449C445.825 438.172 445.342 436.752 445.123 435.27C445.108 435.166 445.094 435.063 445.081 434.959Z" fill="#30674E"/>
<path d="M362.446 441.078C364.431 438.841 365.541 435.843 365.539 432.722C365.538 429.602 364.426 426.605 362.439 424.369C362.029 423.922 361.585 423.512 361.113 423.145L377.455 343.401L352.153 343.857L345.944 426.773C344.706 429.036 344.187 431.684 344.466 434.304C344.746 436.925 345.81 439.37 347.491 441.259C348.457 442.323 349.605 443.169 350.87 443.747C352.134 444.325 353.49 444.625 354.86 444.629C356.23 444.633 357.587 444.341 358.855 443.771C360.122 443.2 361.274 442.361 362.245 441.302C362.313 441.229 362.38 441.154 362.446 441.078Z" fill="#30674E"/>
<path d="M525.494 307.585C521.823 312.948 516.929 306.901 521.823 314.625C525.188 319.935 505.903 369.709 493.557 400.201C487.977 413.999 483.804 423.855 483.804 423.855L462.989 410.647L460.554 409.105C460.554 409.105 479.644 356.461 485.786 337.541C486.802 334.403 487.475 332.19 487.634 331.305C488.784 325.017 488.931 319.626 487.634 317.628C487.327 316.884 487.066 316.118 486.851 315.335C484.391 307.437 476.903 280.767 469.891 255.544C467.847 248.142 465.828 240.875 463.993 234.237C459.282 217.194 455.745 204.335 455.745 204.335L483.89 205.676C483.89 205.676 484.355 206.534 485.174 208.089C487.132 211.79 491.146 219.42 495.796 228.592C499.149 235.189 502.844 242.604 506.332 249.899C515.216 268.457 522.863 286.331 520.6 288.812C515.705 294.176 510.7 291.132 516.868 298.011C523.047 304.903 529.165 302.221 525.494 307.585Z" fill="#F2F2F2"/>
<path d="M491.839 378.896C484.497 370.931 485.856 334.632 485.856 334.632C485.856 334.632 493.161 212.744 483.274 204.577C476.437 199.17 469.163 194.462 461.542 190.511C461.101 190.297 460.869 190.176 460.869 190.176L454.554 170.666L415.654 168.453L408.863 182.908C408.863 182.908 407.798 182.989 406.134 183.244C399.918 184.182 385.307 187.508 386.604 197.873C388.244 211.014 376.668 291.723 373.144 295.759C369.62 299.795 370.55 314.545 379.262 323.918C387.975 333.291 381.71 358.782 375.591 369.509C371.919 376.075 370.224 383.74 370.746 391.42C370.746 391.42 375.591 420.464 387.828 411.078C392.49 407.497 399.11 407.041 407.076 407.698C407.154 407.705 407.238 407.716 407.316 407.722L407.076 409.039C418.138 409.938 431.806 412.982 446.429 412.807L445.996 411.46C446.142 411.459 446.284 411.468 446.429 411.466C448.901 411.439 451.385 411.319 453.906 411.078C475.712 408.999 485.342 415.569 488.168 408.396C490.995 401.222 499.181 386.861 491.839 378.896Z" fill="#F2F2F2"/>
<path opacity="0.3" d="M433.634 170.423C453.908 170.423 470.344 152.413 470.344 130.196C470.344 107.979 453.908 89.9688 433.634 89.9688C413.359 89.9688 396.924 107.979 396.924 130.196C396.924 152.413 413.359 170.423 433.634 170.423Z" fill="#30674E"/>
<path d="M415.976 190.926C415.976 190.926 410.396 211.227 403.899 234.653C401.855 242.028 399.714 249.711 397.634 257.18C390.842 281.464 384.65 303.348 384.075 304.219C382.778 306.217 382.937 311.608 384.075 317.897C384.308 319.157 383.782 324.065 382.79 331.104C381.493 340.343 379.401 353.243 377.174 366.411C375.399 376.937 373.54 387.624 371.937 396.729C369.428 410.862 367.556 421.173 367.556 421.173H344.306C344.306 421.173 348.675 314.29 353.569 306.579C358.464 298.856 353.569 304.903 349.898 299.54C346.227 294.176 352.346 296.858 358.513 289.965C364.68 283.087 359.688 286.13 354.793 280.767C352.982 278.782 357.032 266.137 362.857 250.999C365.573 243.972 368.669 236.396 371.729 229.102C378.055 214.043 384.259 200.192 386.718 194.721C386.718 194.707 386.731 194.694 386.731 194.681L387.832 192.267L415.976 190.926Z" fill="#F2F2F2"/>
<path d="M466.673 195.901C441.124 206.775 418.153 208.65 399.371 195.901V171.764C421.491 186.308 443.934 185.911 466.673 171.764V195.901Z" fill="#3F3D56"/>
<path d="M486.251 350.105C446.767 360.98 411.266 362.854 382.24 350.105V325.969C416.425 340.513 451.109 340.115 486.251 325.969V350.105Z" fill="#3F3D56"/>
<path d="M493.067 547.849C492.859 549.458 492.553 554.929 492.198 562.894C477.456 565.512 462.474 566.115 447.596 564.691L443.068 540.769C458.312 543.819 473.915 544.037 489.225 541.413C492.675 543.129 494.046 540.34 493.067 547.849Z" fill="#3F3D56"/>
<path d="M414.226 572.803C401.68 575.863 388.929 577.809 376.097 578.623L369.697 568.231L368.327 556.578C382.75 556.985 397.148 555.033 411.045 550.785C409.87 556.605 409.038 560.547 409.038 560.547L414.226 572.803Z" fill="#3F3D56"/>
<path d="M417.726 246.855C417.726 250.411 416.437 253.822 414.142 256.337C411.847 258.851 408.735 260.264 405.489 260.264C402.244 260.264 399.132 258.851 396.837 256.337C394.542 253.822 393.253 250.411 393.253 246.855C393.253 239.449 404.266 224.06 405.489 233.446C406.713 242.832 417.726 239.449 417.726 246.855Z" fill="#30674E"/>
<path d="M406.82 224.12C406.379 224.079 405.939 224.066 405.486 224.066C400.159 224.073 395.037 226.316 391.172 230.334C387.308 234.352 384.995 239.839 384.708 245.668C384.696 246.057 384.684 246.459 384.684 246.861C384.684 247.411 384.696 247.947 384.745 248.484C385.053 253.257 386.724 257.803 389.523 261.476C392.321 265.15 396.104 267.764 400.335 268.948C404.566 270.132 409.03 269.827 413.093 268.074C417.157 266.321 420.613 263.211 422.972 259.184C423.446 258.389 423.871 257.561 424.245 256.704C425.716 253.341 426.411 249.635 426.27 245.91C426.129 242.184 425.156 238.554 423.435 235.337C421.715 232.12 419.3 229.414 416.403 227.459C413.506 225.503 410.216 224.356 406.82 224.12ZM421.186 258.795C419.266 261.325 416.868 263.366 414.157 264.779C411.446 266.191 408.487 266.94 405.486 266.975C401.016 266.968 396.702 265.176 393.351 261.936C390 258.695 387.841 254.228 387.278 249.369C387.179 248.537 387.13 247.7 387.131 246.861C387.129 246.745 387.133 246.629 387.143 246.513C387.227 241.241 389.196 236.217 392.627 232.521C396.057 228.824 400.675 226.751 405.486 226.748C405.596 227.07 405.706 227.378 405.829 227.673C411.054 241.216 422.385 240.197 423.841 246.861C424.545 250.083 424.117 253.477 422.642 256.368C422.227 257.226 421.739 258.038 421.186 258.795Z" fill="#30674E"/>
</svg>
